<?xml version="1.0" encoding="UTF-8"?>
<svg id="_Слой_2" data-name="Слой 2" xmlns="http://www.w3.org/2000/svg" viewBox="0 0 980.28 345.17">
  <defs>
    <style>
      .cls-1 {
        fill: #24a44a;
        stroke-width: 0px;
      }

      .cls-2 {
        fill: none;
        stroke: #404042;
        stroke-miterlimit: 10;
        stroke-width: 5px;
      }
    </style>
  </defs>
  <g id="_Слой_1-2" data-name="Слой 1">
    <path class="cls-1" d="m515.04,22.52c22.27,0,43.2,4.23,62.8,12.69,19.59,8.46,36.72,20.02,51.38,34.67,14.65,14.66,26.22,31.71,34.67,51.17,8.46,19.45,12.69,40.32,12.69,62.58s-4.23,43.2-12.69,62.8c-8.46,19.6-20.02,36.72-34.67,51.38-14.66,14.66-31.79,26.22-51.38,34.67-19.6,8.46-40.53,12.69-62.8,12.69s-43.21-4.23-62.79-12.69c-19.6-8.46-36.65-20.01-51.17-34.67-14.52-14.65-26.01-31.78-34.46-51.38-8.46-19.59-12.69-40.52-12.69-62.8s4.23-43.13,12.69-62.58c8.46-19.45,19.94-36.51,34.46-51.17,14.52-14.65,31.57-26.22,51.17-34.67,19.59-8.46,40.52-12.69,62.79-12.69Zm0,62.58c-13.53,0-26.29,2.61-38.27,7.82-11.99,5.22-22.41,12.26-31.29,21.14-8.88,8.88-15.93,19.31-21.14,31.29-5.22,11.99-7.82,24.74-7.82,38.27,0,15.79,3.52,30.45,10.57,43.98l131.93-131.93c-13.53-7.04-28.19-10.57-43.98-10.57Zm0,197.06c13.53,0,26.36-2.6,38.48-7.82,12.12-5.21,22.62-12.26,31.5-21.14,8.88-8.88,15.92-19.31,21.14-31.29,5.21-11.98,7.82-24.74,7.82-38.27,0-15.5-3.53-30.02-10.57-43.56l-131.93,131.93c6.48,3.11,13.39,5.57,20.72,7.4,7.33,1.84,14.94,2.75,22.83,2.75Z"/>
    <g>
      <path class="cls-2" d="m243.62,226.22h37.63v63.85h-37.63v35.1h-63.85v-35.1H4.27L165.81,2.95l73.16-.42-125.59,223.7h66.39v-49.48h63.85v49.48Z"/>
      <path class="cls-2" d="m495.04,2.52c22.27,0,43.2,4.23,62.8,12.69,19.59,8.46,36.72,20.02,51.38,34.67,14.65,14.66,26.22,31.71,34.67,51.17,8.46,19.45,12.69,40.32,12.69,62.58s-4.23,43.2-12.69,62.8c-8.46,19.6-20.02,36.72-34.67,51.38-14.66,14.66-31.79,26.22-51.38,34.67-19.6,8.46-40.53,12.69-62.8,12.69s-43.21-4.23-62.79-12.69c-19.6-8.46-36.65-20.01-51.17-34.67-14.52-14.65-26.01-31.78-34.46-51.38-8.46-19.59-12.69-40.52-12.69-62.8s4.23-43.13,12.69-62.58c8.46-19.45,19.94-36.51,34.46-51.17,14.52-14.65,31.57-26.22,51.17-34.67,19.59-8.46,40.52-12.69,62.79-12.69Zm0,62.58c-13.53,0-26.29,2.61-38.27,7.82-11.99,5.22-22.41,12.26-31.29,21.14-8.88,8.88-15.93,19.31-21.14,31.29-5.22,11.99-7.82,24.74-7.82,38.27,0,15.79,3.52,30.45,10.57,43.98l131.93-131.93c-13.53-7.04-28.19-10.57-43.98-10.57Zm0,197.06c13.53,0,26.36-2.6,38.48-7.82,12.12-5.21,22.62-12.26,31.5-21.14,8.88-8.88,15.92-19.31,21.14-31.29,5.21-11.98,7.82-24.74,7.82-38.27,0-15.5-3.53-30.02-10.57-43.56l-131.93,131.93c6.48,3.11,13.39,5.57,20.72,7.4,7.33,1.84,14.94,2.75,22.83,2.75Z"/>
      <path class="cls-2" d="m940.14,226.22h37.63v63.85h-37.63v35.1h-63.85v-35.1h-175.49L862.34,2.95l73.16-.42-125.59,223.7h66.39v-49.48h63.85v49.48Z"/>
    </g>
  </g>
</svg>