<?xml version="1.0" encoding="UTF-8"?>
<svg id="_Слой_2" data-name="Слой 2" xmlns="http://www.w3.org/2000/svg" viewBox="0 0 382.28 502.21">
  <defs>
    <style>
      .cls-1 {
        fill: #24a44a;
      }

      .cls-1, .cls-2 {
        stroke-width: 0px;
      }

      .cls-2 {
        fill: #fff;
      }

      .cls-3 {
        fill: none;
        stroke: #404042;
        stroke-miterlimit: 10;
        stroke-width: 5px;
      }
    </style>
  </defs>
  <g id="_Слой_1-2" data-name="Слой 1">
    <path class="cls-2" d="m337.31,202.39H67.47c-24.78,0-44.97,20.17-44.97,44.97v209.87c0,24.81,20.19,44.97,44.97,44.97h269.84c24.79,0,44.97-20.17,44.97-44.97v-209.87c0-24.81-20.19-44.97-44.97-44.97Z"/>
    <path class="cls-1" d="m197.08,332.62v34.15c0,8.28-6.7,14.99-14.99,14.99s-14.99-6.72-14.99-14.99v-34.15c-8.92-5.2-14.99-14.77-14.99-25.81,0-16.54,13.45-29.98,29.98-29.98s29.98,13.45,29.98,29.98c0,11.05-6.07,20.61-14.99,25.81Z"/>
    <path class="cls-3" d="m317.31,182.39h-14.99v-59.96c0-66.14-53.79-119.93-119.93-119.93S62.46,56.29,62.46,122.43v59.96h-14.99c-24.78,0-44.97,20.17-44.97,44.97v209.87c0,24.81,20.19,44.97,44.97,44.97h269.84c24.79,0,44.97-20.17,44.97-44.97v-209.87c0-24.81-20.19-44.97-44.97-44.97Zm-54.97,0H102.44v-59.96c0-44.09,35.86-79.95,79.95-79.95s79.95,35.86,79.95,79.95v59.96Z"/>
  </g>
</svg>