<?xml version="1.0" encoding="UTF-8"?>
<svg id="_Слой_2" data-name="Слой 2" xmlns="http://www.w3.org/2000/svg" viewBox="0 0 490 490">
  <defs>
    <style>
      .cls-1 {
        fill: #404042;
      }

      .cls-1, .cls-2, .cls-3 {
        stroke-width: 0px;
      }

      .cls-2 {
        fill: #24a44a;
      }

      .cls-3 {
        fill: #fff;
      }
    </style>
  </defs>
  <g id="_Слой_1-2" data-name="Слой 1">
    <rect class="cls-3" x="44" y="100" width="352" height="320.58"/>
    <path class="cls-2" d="m485.06,226.61c-2.99-1.24-6.43-.55-8.72,1.74l-248,248c-2.29,2.29-2.97,5.73-1.73,8.71s4.16,4.94,7.39,4.94h248c4.42,0,8-3.58,8-8v-248c0-3.24-1.95-6.16-4.94-7.39Z"/>
    <polygon class="cls-2" points="474 474 253.31 474 474 253.31 474 474"/>
    <path class="cls-1" d="m416,120h16v112h-16v-112Z"/>
    <path class="cls-1" d="m1.1,391.87c.36,1.54.82,3.05,1.41,4.52.23.56.59,1.05.85,1.6,2.32,5.14,6.08,9.5,10.82,12.57,1.17.73,2.38,1.39,3.63,1.98.61.3,1.18.7,1.82.98,1.43.55,2.89,1,4.38,1.34.56.14,1.07.38,1.64.5,2.09.43,4.22.64,6.36.65h216v-16H32c-1.07,0-2.15-.11-3.2-.32-.39-.08-.75-.24-1.12-.34-.63-.16-1.25-.35-1.86-.58-.55-.26-1.08-.55-1.6-.87-.36-.21-.74-.37-1.09-.59-.86-.59-1.66-1.25-2.4-1.99-.73-.73-1.4-1.54-1.98-2.4-.3-.46-.53-.97-.8-1.46-.27-.49-.49-.8-.67-1.25-.27-.67-.48-1.36-.64-2.07-.09-.31-.23-.61-.29-.93-.96-4.7.25-9.59,3.28-13.31,3.03-3.72,7.57-5.88,12.38-5.88h24c4.42,0,8-3.58,8-8V80h280v-16H64V24c0-4.42-3.58-8-8-8h-24C14.33,16,0,30.32,0,48v336c0,2.15.22,4.29.65,6.4.11.5.32.97.45,1.47ZM16,48c0-8.84,7.16-16,16-16h16v320h-16c-5.62-.01-11.14,1.47-16,4.29V48Z"/>
    <path class="cls-1" d="m217.71,181.34l-17.06-21.34h71.35v-16h-88c-2.37.01-4.61,1.07-6.12,2.9,0,.05-.09.05-.12.1l-64,80c-.42.54-.77,1.13-1.04,1.76,0,.05-.06.1-.09.15-.35.88-.54,1.81-.56,2.76,0,.12-.06.21-.06.33v96c0,4.42,3.58,8,8,8h208v-16h-72v-80h112v48h16v-56c0-.11-.06-.21-.06-.33-.02-.95-.21-1.88-.56-2.75,0-.07-.08-.12-.1-.18-.27-.62-.61-1.2-1.03-1.73l-24-30.04-12.49,9.98,13.6,17.04h-107.5l-34.14-42.66Zm-33.71-16.54l31.57,39.46,15.79,19.74h-94.7l47.35-59.2Zm-56,75.2h112v80h-24v-56c0-4.42-3.58-8-8-8h-48c-4.42,0-8,3.58-8,8v56h-24v-80Zm40,80v-48h32v48h-32Z"/>
    <path class="cls-1" d="m296,256c-4.42,0-8,3.58-8,8v32c0,4.42,3.58,8,8,8h32c4.42,0,8-3.58,8-8v-32c0-4.42-3.58-8-8-8h-32Zm24,32h-16v-16h16v16Z"/>
    <path class="cls-1" d="m475.06,216.61c-2.99-1.24-6.43-.55-8.72,1.74l-248,248c-2.29,2.29-2.97,5.73-1.73,8.71s4.16,4.94,7.39,4.94h248c4.42,0,8-3.58,8-8v-248c0-3.24-1.95-6.16-4.94-7.39Zm-11.06,247.39h-220.69l220.69-220.69v220.69Z"/>
    <path class="cls-1" d="m336.61,427.06c1.24,2.99,4.16,4.94,7.39,4.94h80c4.42,0,8-3.58,8-8v-80c0-3.24-1.95-6.15-4.94-7.39s-6.43-.55-8.72,1.73l-80,80c-2.29,2.29-2.97,5.73-1.73,8.72Zm79.39-63.75v52.69h-52.69l52.69-52.69Z"/>
    <path class="cls-1" d="m445.66,2.34c-3.12-3.12-8.19-3.12-11.31,0l-144,144c-.88.88-1.54,1.95-1.93,3.12l-8,24c-.96,2.88-.21,6.04,1.93,8.18l2.34,2.35-18.34,18.34,11.31,11.31,18.34-18.34,2.34,2.34c1.5,1.5,3.54,2.34,5.66,2.35.86,0,1.71-.14,2.53-.41l24-8c1.18-.39,2.25-1.05,3.13-1.94L477.66,45.65c3.12-3.12,3.12-8.19,0-11.31L445.66,2.34Zm-134.34,145.66l32.69-32.69,20.69,20.69-32.69,32.69-20.69-20.69Zm-5.14,34.85l-9.01-9.01,4.34-13.04,17.7,17.7-13.03,4.34Zm69.83-58.16l-20.69-20.69,84.69-84.69,20.69,20.69-84.69,84.69Z"/>
    <path class="cls-1" d="m80,336v24c0,4.42,3.58,8,8,8h24v-16h-16v-16h-16Z"/>
    <path class="cls-1" d="m112,96h-24c-4.42,0-8,3.58-8,8v24h16v-16h16v-16Z"/>
  </g>
</svg>