<?xml version="1.0" encoding="UTF-8"?>
<svg id="_Слой_2" data-name="Слой 2" xmlns="http://www.w3.org/2000/svg" viewBox="0 0 421.69 493.58">
  <defs>
    <style>
      .cls-1 {
        fill: #24a44a;
      }

      .cls-1, .cls-2, .cls-3 {
        stroke-width: 0px;
      }

      .cls-2 {
        fill: #fff;
      }

      .cls-4 {
        fill: none;
        stroke: #404042;
        stroke-miterlimit: 10;
        stroke-width: 5px;
      }

      .cls-3 {
        fill: #404041;
      }
    </style>
  </defs>
  <g id="_Слой_1-2" data-name="Слой 1">
    <path class="cls-2" d="m421.69,304.74c0,52.12-52.29,100.98-96.16,132.8-39.33,28.53-79.21,48.77-94.29,56.04-15.08-7.27-54.97-27.51-94.29-56.04-43.87-31.82-96.16-80.69-96.16-132.8V89.76l190.45-57.14,190.45,57.14v214.97Z"/>
    <path class="cls-4" d="m399.97,286.55c0,54.38-54.57,105.37-100.34,138.58-41.04,29.77-82.66,50.89-98.39,58.47-15.74-7.59-57.36-28.71-98.39-58.47C57.07,391.92,2.5,340.93,2.5,286.55V62.23L201.23,2.61l198.73,59.62v224.32Z"/>
    <g>
      <path class="cls-1" d="m170.8,194.42v42.97s142.77,0,142.77,0c17.33,0,31.51-14.18,31.51-31.51v-38.55s-147.18,0-147.18,0c-14.96,0-27.09,12.13-27.09,27.09"/>
      <g>
        <path class="cls-3" d="m71.27,220.1c-.44-.44-.65-.97-.65-1.61v-29.5c0-.67.22-1.21.65-1.63s.97-.63,1.61-.63h8.71c2.15,0,4.07.48,5.77,1.44,1.7.96,3.02,2.29,3.97,4.01.94,1.71,1.42,3.66,1.42,5.84s-.47,4.01-1.42,5.66c-.94,1.66-2.27,2.95-3.97,3.88-1.7.93-3.62,1.4-5.77,1.4h-6.45v9.54c0,.64-.21,1.18-.63,1.61-.42.44-.97.65-1.63.65s-1.18-.22-1.61-.65Zm10.33-15.34c1.97,0,3.6-.63,4.88-1.89,1.28-1.26,1.92-2.88,1.92-4.86s-.64-3.76-1.92-5.1c-1.28-1.34-2.9-2-4.88-2h-6.45v13.85h6.45Z"/>
        <path class="cls-3" d="m120.28,218.7c0,.58-.2,1.07-.59,1.46-.39.39-.92.59-1.59.59-.84,0-1.5-.36-1.96-1.09l-7.49-12.03h-6.36v10.85c0,.64-.21,1.18-.63,1.61-.42.44-.97.65-1.63.65s-1.18-.22-1.61-.65-.65-.97-.65-1.61v-29.5c0-.67.22-1.21.65-1.63s.97-.63,1.61-.63h7.84c2.15,0,4.07.45,5.77,1.35,1.7.9,3.02,2.16,3.97,3.79.94,1.63,1.42,3.49,1.42,5.58s-.52,3.89-1.57,5.49c-1.05,1.6-2.47,2.8-4.27,3.62l6.67,10.72c.29.47.44.94.44,1.44Zm-12.42-15.25c1.98,0,3.6-.56,4.88-1.68,1.28-1.12,1.92-2.56,1.92-4.34,0-1.92-.64-3.49-1.92-4.7-1.28-1.22-2.9-1.83-4.88-1.83h-5.58v12.55h5.58Z"/>
        <path class="cls-3" d="m132.02,218.96c-2.63-1.48-4.67-3.55-6.12-6.21-1.45-2.66-2.18-5.67-2.18-9.04s.73-6.38,2.18-9.02c1.45-2.64,3.49-4.71,6.12-6.19,2.63-1.48,5.63-2.22,9-2.22s6.32.74,8.95,2.22,4.68,3.55,6.14,6.19c1.47,2.64,2.2,5.65,2.2,9.02s-.73,6.38-2.2,9.04c-1.47,2.66-3.51,4.73-6.12,6.21-2.61,1.48-5.61,2.22-8.98,2.22s-6.37-.74-9-2.22Zm15.66-3.64c1.97-1.18,3.51-2.78,4.62-4.82,1.1-2.03,1.66-4.3,1.66-6.8s-.55-4.76-1.66-6.8c-1.1-2.03-2.64-3.63-4.6-4.79-1.96-1.16-4.19-1.74-6.69-1.74s-4.73.58-6.69,1.74-3.49,2.76-4.6,4.79c-1.1,2.03-1.66,4.3-1.66,6.8s.55,4.76,1.66,6.8c1.1,2.03,2.64,3.64,4.62,4.82,1.97,1.18,4.2,1.76,6.67,1.76s4.69-.59,6.67-1.76Z"/>
        <path class="cls-2" d="m210.91,187.31c.39.39.59.89.59,1.5s-.2,1.11-.59,1.5c-.39.39-.89.59-1.5.59h-7.56v27.58c0,.64-.22,1.18-.65,1.61s-.97.65-1.61.65-1.18-.22-1.61-.65c-.44-.44-.65-.97-.65-1.61v-27.58h-7.6c-.61,0-1.11-.2-1.5-.59-.39-.39-.59-.89-.59-1.5s.2-1.11.59-1.5.89-.59,1.5-.59h19.7c.61,0,1.11.2,1.5.59Z"/>
        <path class="cls-2" d="m217.16,220.1c-.44-.44-.65-.97-.65-1.61v-29.5c0-.67.22-1.21.65-1.63s.97-.63,1.61-.63h19.69c.67,0,1.2.2,1.61.59.41.39.61.91.61,1.55s-.2,1.1-.61,1.48c-.41.38-.94.57-1.61.57h-17.43v10.59h12.5c.64,0,1.17.2,1.59.59.42.39.63.89.63,1.5s-.21,1.11-.63,1.5c-.42.39-.95.59-1.59.59h-12.5v10.89h17.43c.67,0,1.2.19,1.61.57.41.38.61.87.61,1.48s-.2,1.15-.61,1.55c-.41.39-.94.59-1.61.59h-19.69c-.64,0-1.18-.22-1.61-.65Z"/>
        <path class="cls-2" d="m247.66,220.1c-.44-.44-.65-.97-.65-1.61v-29.5c0-.67.22-1.21.65-1.63s.97-.63,1.61-.63h8.71c2.15,0,4.07.48,5.77,1.44,1.7.96,3.02,2.29,3.97,4.01.94,1.71,1.42,3.66,1.42,5.84s-.47,4.01-1.42,5.66c-.94,1.66-2.27,2.95-3.97,3.88-1.7.93-3.62,1.4-5.77,1.4h-6.45v9.54c0,.64-.21,1.18-.63,1.61-.42.44-.97.65-1.63.65s-1.18-.22-1.61-.65Zm10.33-15.34c1.97,0,3.6-.63,4.88-1.89,1.28-1.26,1.92-2.88,1.92-4.86s-.64-3.76-1.92-5.1c-1.28-1.34-2.9-2-4.88-2h-6.45v13.85h6.45Z"/>
        <path class="cls-2" d="m274.78,220.1c-.42-.44-.63-.97-.63-1.61v-29.5c0-.64.22-1.18.65-1.61s.96-.65,1.57-.65,1.18.22,1.61.65.65.97.65,1.61v27.23h12.16c.64,0,1.18.22,1.61.65s.65.97.65,1.61-.22,1.18-.65,1.61-.97.65-1.61.65h-14.43c-.64,0-1.17-.22-1.59-.65Z"/>
        <path class="cls-2" d="m302.19,218.96c-2.63-1.48-4.67-3.55-6.12-6.21-1.45-2.66-2.18-5.67-2.18-9.04s.73-6.38,2.18-9.02c1.45-2.64,3.49-4.71,6.12-6.19,2.63-1.48,5.63-2.22,9-2.22s6.32.74,8.95,2.22c2.63,1.48,4.68,3.55,6.14,6.19,1.47,2.64,2.2,5.65,2.2,9.02s-.73,6.38-2.2,9.04c-1.47,2.66-3.51,4.73-6.12,6.21-2.61,1.48-5.61,2.22-8.98,2.22s-6.37-.74-9-2.22Zm15.66-3.64c1.97-1.18,3.51-2.78,4.62-4.82,1.1-2.03,1.66-4.3,1.66-6.8s-.55-4.76-1.66-6.8c-1.1-2.03-2.64-3.63-4.6-4.79-1.96-1.16-4.19-1.74-6.69-1.74s-4.73.58-6.69,1.74c-1.96,1.16-3.49,2.76-4.6,4.79-1.1,2.03-1.66,4.3-1.66,6.8s.55,4.76,1.66,6.8c1.1,2.03,2.64,3.64,4.62,4.82,1.97,1.18,4.2,1.76,6.67,1.76s4.69-.59,6.67-1.76Z"/>
      </g>
    </g>
  </g>
</svg>