<?xml version="1.0" encoding="UTF-8"?>
<svg id="_Слой_2" data-name="Слой 2" xmlns="http://www.w3.org/2000/svg" viewBox="0 0 200 200">
  <defs>
    <style>
      .cls-1 {
        fill: #df1b12;
      }

      .cls-1, .cls-2 {
        fill-rule: evenodd;
        stroke-width: 0px;
      }

      .cls-2 {
        fill: #fff;
      }
    </style>
  </defs>
  <g id="_1" data-name=" 1">
    <g>
      <path class="cls-1" d="m100,200c55.23,0,100-44.77,100-100S155.23,0,100,0,0,44.77,0,100s44.77,100,100,100h0Z"/>
      <path class="cls-2" d="m56.88,54.87v34.02c5.18-6.17,11.38-9.28,18.58-9.28,3.71,0,7.03.71,10.01,2.11,2.99,1.4,5.22,3.19,6.73,5.36,1.52,2.2,2.54,4.6,3.09,7.25.55,2.64.83,6.74.83,12.31v36.37h-16.09v-32.76c0-6.5-.29-10.62-.9-12.37-.61-1.76-1.69-3.15-3.23-4.16-1.55-1.05-3.48-1.56-5.81-1.56-2.66,0-5.06.67-7.14,1.99-2.12,1.33-3.65,3.33-4.62,5.99-.98,2.67-1.47,6.6-1.45,11.82l-.02,31.06h-16.07V54.87h16.09"/>
      <path class="cls-2" d="m120.24,54.87v34.02c5.18-6.17,11.38-9.28,18.58-9.28,3.69,0,7.04.71,10.02,2.11,2.97,1.4,5.21,3.19,6.71,5.36,1.52,2.2,2.55,4.6,3.09,7.25.55,2.64.83,6.74.83,12.31v36.37h-16.07v-32.76c0-6.5-.3-10.62-.92-12.37-.61-1.76-1.68-3.15-3.24-4.16-1.53-1.05-3.48-1.56-5.81-1.56-2.66,0-5.05.67-7.14,1.99-2.1,1.33-3.63,3.33-4.61,5.99-.96,2.67-1.45,6.6-1.45,11.82v31.06h-16.07V54.87h16.07"/>
    </g>
  </g>
</svg>