<?xml version="1.0" encoding="UTF-8"?>
<svg id="_Слой_2" data-name="Слой 2" xmlns="http://www.w3.org/2000/svg" viewBox="0 0 512 512">
  <defs>
    <style>
      .cls-1 {
        stroke-width: 0px;
      }
    </style>
  </defs>
  <g id="Layer_1" data-name="Layer 1">
    <path fill="#f64747" d="m256,0C114.51,0,0,114.5,0,256s114.5,256,256,256,256-114.5,256-256S397.5,0,256,0Zm26.29,357.62c0,8.09-11.79,16.17-26.28,16.17s-25.95-8.09-25.95-16.17v-128.39c0-9.43,10.78-15.84,25.95-15.84s26.28,6.4,26.28,15.84v128.39Zm-26.28-175.23c-15.5,0-27.63-11.46-27.63-24.26s12.13-23.93,27.63-23.93,27.3,11.12,27.3,23.93-12.13,24.26-27.3,24.26Z"/>
  </g>
</svg>