<?xml version="1.0" encoding="UTF-8"?>
<svg id="_Слой_2" data-name="Слой 2" xmlns="http://www.w3.org/2000/svg" viewBox="0 0 15.03 17.57">
  <defs>
    <style>
      .cls-1 {
        fill: #404042;
      }

      .cls-1, .cls-2 {
        stroke-width: 0px;
      }

      .cls-2 {
        fill: #fff;
        opacity: 0;
      }
    </style>
  </defs>
  <g id="_Слой_1-2" data-name="Слой 1">
    <path class="cls-2" d="m11.38,2.21H3.65L0,0v15.68h0v.02h.09l7.36,1.86s.04,0,.07,0h0s.04,0,.07,0l7.36-1.86h.09s0,0,0,0v-.02h0V0l-3.65,2.21Z"/>
    <g>
      <path class="cls-1" d="m11.38,2.21H3.65L0,0v15.68H0v.02h.09l7.36,1.86s.04,0,.07,0h0s.04,0,.07,0l7.36-1.86h.09s0,0,0,0v-.02h0V0l-3.65,2.21Zm-3.92,13.12l-6.85-1.88V2.81s0,0,0,0v-1.73l2.85,1.73h4.05s2.87,0,2.87,0h1.17l2.85-1.73v1.73h0v10.64s-6.88,1.88-6.88,1.88c-.03,0-.06,0-.09,0Z"/>
      <polygon class="cls-1" points="9.01 10.29 9 10.29 7.5 10.29 6.02 10.29 7.5 11.78 7.5 11.79 7.51 11.78 7.51 11.79 9.01 10.29"/>
    </g>
  </g>
</svg>
