<?xml version="1.0" encoding="UTF-8"?>
<svg id="_Слой_2" data-name="Слой 2" xmlns="http://www.w3.org/2000/svg" xmlns:xlink="http://www.w3.org/1999/xlink" viewBox="0 0 471.49 120.35">
  <defs>
    <style>
      .cls-1 {
        fill: #404042;
      }

      .cls-1, .cls-2, .cls-3 {
        stroke-width: 0px;
      }

      .cls-2 {
        fill: url(#_Безымянный_градиент_24);
      }

      .cls-3 {
        fill: #fff;
      }
    </style>
    <linearGradient id="_Безымянный_градиент_24" data-name="Безымянный градиент 24" x1="172.11" y1="60.18" x2="471.49" y2="60.18" gradientUnits="userSpaceOnUse">
      <stop offset="0" stop-color="#09a149"/>
      <stop offset="1" stop-color="#74ba5d"/>
    </linearGradient>
  </defs>
  <g id="_Слой_1-2" data-name="Слой 1">
    <g>
      <path class="cls-2" d="m172.11,46.54v73.81s245.25,0,245.25,0c29.77,0,54.13-24.36,54.13-54.13V0s-252.84,0-252.84,0c-25.7,0-46.54,20.84-46.54,46.54"/>
      <g>
        <path class="cls-1" d="m1.12,90.65c-.75-.75-1.12-1.67-1.12-2.77v-50.67c0-1.15.37-2.08,1.12-2.81s1.67-1.08,2.77-1.08h14.97c3.69,0,7,.82,9.92,2.47,2.92,1.65,5.19,3.94,6.81,6.88,1.62,2.95,2.43,6.29,2.43,10.03s-.81,6.88-2.43,9.73c-1.62,2.85-3.89,5.07-6.81,6.66-2.92,1.6-6.23,2.4-9.92,2.4H7.78v16.39c0,1.1-.36,2.02-1.09,2.77-.72.75-1.66,1.12-2.81,1.12s-2.02-.37-2.77-1.12Zm17.74-26.35c3.39,0,6.19-1.08,8.38-3.25,2.2-2.17,3.29-4.95,3.29-8.34s-1.1-6.46-3.29-8.76c-2.2-2.29-4.99-3.44-8.38-3.44H7.78v23.8h11.08Z"/>
        <path class="cls-1" d="m85.33,88.25c0,1-.34,1.83-1.01,2.51-.67.67-1.58,1.01-2.73,1.01-1.45,0-2.57-.62-3.37-1.87l-12.87-20.66h-10.93v18.64c0,1.1-.36,2.02-1.09,2.77-.72.75-1.66,1.12-2.81,1.12s-2.02-.37-2.77-1.12-1.12-1.67-1.12-2.77v-50.67c0-1.15.37-2.08,1.12-2.81s1.67-1.08,2.77-1.08h13.47c3.69,0,7,.77,9.92,2.32,2.92,1.55,5.19,3.72,6.81,6.51,1.62,2.8,2.43,5.99,2.43,9.58s-.9,6.69-2.69,9.43c-1.8,2.75-4.24,4.81-7.34,6.21l11.45,18.41c.5.8.75,1.62.75,2.47Zm-21.33-26.2c3.39,0,6.19-.96,8.38-2.88,2.2-1.92,3.29-4.4,3.29-7.45,0-3.29-1.1-5.99-3.29-8.08-2.2-2.1-4.99-3.15-8.38-3.15h-9.58v21.56h9.58Z"/>
        <path class="cls-1" d="m105.5,88.7c-4.52-2.54-8.02-6.1-10.52-10.67s-3.74-9.74-3.74-15.53,1.25-10.95,3.74-15.5c2.5-4.54,6-8.08,10.52-10.63,4.51-2.55,9.67-3.81,15.46-3.81s10.86,1.27,15.38,3.81c4.52,2.55,8.03,6.09,10.55,10.63,2.52,4.54,3.78,9.7,3.78,15.5s-1.26,10.96-3.78,15.53c-2.52,4.57-6.03,8.12-10.52,10.67-4.49,2.55-9.63,3.82-15.42,3.82s-10.94-1.27-15.46-3.82Zm26.91-6.25c3.39-2.02,6.04-4.78,7.93-8.27,1.9-3.49,2.84-7.38,2.84-11.67s-.95-8.18-2.84-11.68c-1.9-3.49-4.53-6.24-7.9-8.23-3.37-2-7.2-2.99-11.49-2.99s-8.12,1-11.49,2.99c-3.37,2-6,4.74-7.9,8.23-1.9,3.49-2.85,7.38-2.85,11.68s.95,8.18,2.85,11.67c1.9,3.49,4.54,6.25,7.93,8.27,3.39,2.02,7.21,3.03,11.45,3.03s8.06-1.01,11.45-3.03Z"/>
        <path class="cls-3" d="m241.01,34.33c.67.67,1.01,1.53,1.01,2.58s-.34,1.91-1.01,2.58c-.67.67-1.53,1.01-2.58,1.01h-12.99v47.38c0,1.1-.37,2.02-1.12,2.77s-1.67,1.12-2.77,1.12-2.02-.37-2.77-1.12c-.75-.75-1.12-1.67-1.12-2.77v-47.38h-13.06c-1.05,0-1.91-.34-2.58-1.01-.67-.68-1.01-1.54-1.01-2.58s.34-1.91,1.01-2.58,1.53-1.01,2.58-1.01h33.84c1.05,0,1.91.34,2.58,1.01Z"/>
        <path class="cls-3" d="m251.75,90.65c-.75-.75-1.12-1.67-1.12-2.77v-50.67c0-1.15.37-2.08,1.12-2.81.75-.72,1.67-1.08,2.77-1.08h33.83c1.15,0,2.07.34,2.77,1.01.7.67,1.05,1.56,1.05,2.66s-.35,1.9-1.05,2.55c-.7.65-1.62.97-2.77.97h-29.94v18.19h21.48c1.1,0,2.01.34,2.73,1.01.72.68,1.09,1.54,1.09,2.58s-.36,1.91-1.09,2.58c-.72.67-1.63,1.01-2.73,1.01h-21.48v18.71h29.94c1.15,0,2.07.32,2.77.97.7.65,1.05,1.5,1.05,2.55s-.35,1.98-1.05,2.66c-.7.67-1.62,1.01-2.77,1.01h-33.83c-1.1,0-2.02-.37-2.77-1.12Z"/>
        <path class="cls-3" d="m304.14,90.65c-.75-.75-1.12-1.67-1.12-2.77v-50.67c0-1.15.37-2.08,1.12-2.81s1.67-1.08,2.77-1.08h14.97c3.69,0,7,.82,9.92,2.47,2.92,1.65,5.19,3.94,6.81,6.88,1.62,2.95,2.43,6.29,2.43,10.03s-.81,6.88-2.43,9.73c-1.62,2.85-3.89,5.07-6.81,6.66-2.92,1.6-6.23,2.4-9.92,2.4h-11.08v16.39c0,1.1-.36,2.02-1.09,2.77-.72.75-1.66,1.12-2.81,1.12s-2.02-.37-2.77-1.12Zm17.74-26.35c3.39,0,6.19-1.08,8.38-3.25,2.2-2.17,3.29-4.95,3.29-8.34s-1.1-6.46-3.29-8.76c-2.2-2.29-4.99-3.44-8.38-3.44h-11.08v23.8h11.08Z"/>
        <path class="cls-3" d="m350.73,90.65c-.72-.75-1.08-1.67-1.08-2.77v-50.67c0-1.1.37-2.02,1.12-2.77.75-.75,1.65-1.12,2.69-1.12s2.02.37,2.77,1.12,1.12,1.67,1.12,2.77v46.78h20.89c1.1,0,2.02.38,2.77,1.12.75.75,1.12,1.67,1.12,2.77s-.37,2.02-1.12,2.77c-.75.75-1.67,1.12-2.77,1.12h-24.78c-1.1,0-2.01-.37-2.73-1.12Z"/>
        <path class="cls-3" d="m397.82,88.7c-4.52-2.54-8.02-6.1-10.52-10.67-2.5-4.57-3.74-9.74-3.74-15.53s1.25-10.95,3.74-15.5c2.5-4.54,6-8.08,10.52-10.63,4.51-2.55,9.67-3.81,15.46-3.81s10.86,1.27,15.38,3.81,8.03,6.09,10.55,10.63c2.52,4.54,3.78,9.7,3.78,15.5s-1.26,10.96-3.78,15.53c-2.52,4.57-6.03,8.12-10.52,10.67-4.49,2.55-9.63,3.82-15.42,3.82s-10.94-1.27-15.46-3.82Zm26.91-6.25c3.39-2.02,6.04-4.78,7.93-8.27,1.9-3.49,2.84-7.38,2.84-11.67s-.95-8.18-2.84-11.68c-1.9-3.49-4.53-6.24-7.9-8.23-3.37-2-7.2-2.99-11.49-2.99s-8.12,1-11.49,2.99-6,4.74-7.9,8.23c-1.9,3.49-2.85,7.38-2.85,11.68s.95,8.18,2.85,11.67c1.9,3.49,4.54,6.25,7.93,8.27,3.39,2.02,7.21,3.03,11.45,3.03s8.06-1.01,11.45-3.03Z"/>
      </g>
    </g>
  </g>
</svg>