<?xml version="1.0" encoding="UTF-8"?>
<svg id="_Слой_2" data-name="Слой 2" xmlns="http://www.w3.org/2000/svg" viewBox="0 0 512 512">
  <defs>
    <style>
      .cls-1 {
        stroke-width: 0px;
      fill: #24a44a;
      }
    </style>
  </defs>
  <g id="Layer_1" data-name="Layer 1">
    <path class="cls-1" d="m405.33,0H106.67C47.85,0,0,47.85,0,106.67v21.33c0,58.82,47.85,106.67,106.67,106.67h298.67c58.82,0,106.67-47.85,106.67-106.67v-21.33c0-58.82-47.85-106.67-106.67-106.67Zm0,170.67H106.67c-11.8,0-21.33-9.56-21.33-21.33s9.54-21.33,21.33-21.33h298.67c11.8,0,21.33,9.56,21.33,21.33s-9.54,21.33-21.33,21.33Zm-128,128v192c0,11.78-9.54,21.33-21.33,21.33s-21.33-9.56-21.33-21.33v-192c0-11.78,9.54-21.33,21.33-21.33s21.33,9.56,21.33,21.33Zm-85.33,0v128c0,47.06-38.27,85.33-85.33,85.33s-85.33-38.27-85.33-85.33c0-37.1,23.91-72.47,56.9-84.12,11.11-3.93,23.3,1.92,27.22,13.01,3.93,11.11-1.92,23.3-13.01,27.22-15.94,5.63-28.44,24.9-28.44,43.88,0,23.53,19.14,42.67,42.67,42.67s42.67-19.14,42.67-42.67v-128c0-11.78,9.54-21.33,21.33-21.33s21.33,9.56,21.33,21.33Zm298.67,128c0,47.06-38.27,85.33-85.33,85.33s-85.33-38.27-85.33-85.33v-128c0-11.78,9.54-21.33,21.33-21.33s21.33,9.56,21.33,21.33v128c0,23.53,19.14,42.67,42.67,42.67s42.67-19.14,42.67-42.67c0-18.99-12.5-38.25-28.44-43.88-11.11-3.93-16.94-16.11-13.01-27.22,3.95-11.11,16.11-16.94,27.22-13.01,32.98,11.65,56.9,47.02,56.9,84.12Z"/>
  </g>
</svg>
