<?xml version="1.0" encoding="UTF-8"?>
<svg id="_Слой_2" data-name="Слой 2" xmlns="http://www.w3.org/2000/svg" viewBox="0 0 432 456.31">
  <defs>
    <style>
      .cls-1 {
        stroke-width: 0px;
      fill: #24a44a;
      }
    </style>
  </defs>
  <g id="solid">
    <path class="cls-1" d="m128,95.66v24.34H0v-48C.04,32.25,32.25.04,72,0h280v32.92s-189.66,23.14-189.66,23.14c-19.64,2.93-34.22,19.74-34.34,39.6Zm0,72.54L0,168v-32h128v32.19ZM0,184l376.09.56c30.88.09,55.87,25.12,55.91,56v71.44h-112.02v-26.95c0-2.25-.95-4.4-2.62-5.92-1.68-1.51-3.91-2.25-6.15-2.04l-119.86,11.6c-27.26,4.24-47.35,27.73-47.34,55.31v112H0V184Z"/>
    <path class="cls-1" d="m339.31,400.72c-2.17,4.91-3.3,10.22-3.31,15.59,0,22.09,17.91,40,40,40,22.09,0,40-17.91,40-40-.02-5.38-1.15-10.7-3.32-15.62-.13-.45-.3-.89-.5-1.3l-29.02-58.92c-.72-1.23-1.74-2.25-2.97-2.97-3.96-2.33-9.06-1-11.39,2.97l-28.98,58.92c-.21.43-.38.87-.51,1.33Z"/>
  </g>
</svg>
