<?xml version="1.0" encoding="UTF-8"?>
<svg id="_Слой_2" data-name="Слой 2" xmlns="http://www.w3.org/2000/svg" viewBox="0 0 426.67 426.67">
  <defs>
    <style>
      .cls-1 {
        stroke-width: 0px;
      fill: #f64747;
      }
    </style>
  </defs>
  <g id="Layer_1" data-name="Layer 1">
    <path class="cls-1" d="m0,234.67c0,11.73,5.33,22.4,12.8,29.87l149.33,149.33c7.47,7.47,18.13,12.8,29.87,12.8,11.73,0,22.4-5.33,29.87-12.8l192-192c8.53-7.47,12.8-18.13,12.8-29.87V42.67C426.67,19.2,407.47,0,384,0h-149.33c-11.73,0-22.4,4.27-29.87,12.8L12.8,204.8C5.33,212.27,0,222.93,0,234.67ZM320,74.67c0-18.13,13.87-32,32-32s32,13.87,32,32-13.87,32-32,32-32-13.87-32-32Z"/>
  </g>
</svg>
