<?xml version="1.0" encoding="UTF-8"?>
<svg id="_Слой_2" data-name="Слой 2" xmlns="http://www.w3.org/2000/svg" viewBox="0 0 511 489.69">
  <defs>
    <style>
      .cls-1 {
        stroke-width: 0px;
      fill: #404042;
      }
    </style>
  </defs>
  <g id="_Слой_1-2" data-name="Слой 1">
    <path class="cls-1" d="m509.66,185.03c-3.36-10.35-12.54-17.67-23.36-18.65l-147.51-13.39-58.3-136.49c-4.3-10.03-14.1-16.5-25-16.5s-20.7,6.47-24.97,16.5l-58.3,136.49-147.53,13.39c-10.81,1-19.97,8.32-23.36,18.65-3.36,10.35-.26,21.7,7.92,28.87l111.51,97.78-32.88,144.8c-2.41,10.65,1.73,21.66,10.56,28.04,4.75,3.45,10.33,5.17,15.93,5.17,4.81,0,9.63-1.28,13.93-3.85l127.2-76.06,127.18,76.06c9.33,5.58,21.06,5.06,29.88-1.32,8.83-6.39,12.97-17.4,10.56-28.04l-32.88-144.8,111.51-97.78c8.18-7.17,11.29-18.5,7.92-28.87Z"/>
  </g>
</svg>
