<?xml version="1.0" encoding="UTF-8"?>
<svg id="_Слой_2" data-name="Слой 2" xmlns="http://www.w3.org/2000/svg" viewBox="0 0 526.35 512">
  <defs>
    <style>
      .cls-1 {
        fill: #404042;
      }

      .cls-1, .cls-2, .cls-3 {
        stroke-width: 0px;
      }

      .cls-2 {
        fill: #24a44a;
      }

      .cls-3 {
        fill: #fff;
      }
    </style>
  </defs>
  <g id="_Слой_1-2" data-name="Слой 1">
    <path class="cls-3" d="m498.01,156.53h0s-3.66,0-3.66,0h0s-165.64,0-165.64,0h-199.46v226.28c0,13.89-11.26,25.14-25.14,25.14h-16.76c-27.76.03-50.26,22.53-50.29,50.29v1.84c1.87,27.61,25.05,48.91,52.72,48.44h408.23c4.63,0,8.38-3.75,8.38-8.38V164.91c0-4.63-3.75-8.38-8.38-8.38Z"/>
    <path class="cls-2" d="m526.35,55.21c.02-6.91-2.78-13.66-7.68-18.52l-24.62-24.57c-4.82-4.87-11.51-7.67-18.36-7.69h-.05s-.05,0-.05,0c-6.82.02-13.47,2.82-18.26,7.69l-24.54,24.54-12.65,12.64-11.93,11.93h0s-93.14,93.15-93.14,93.15l-12.02,12.02c-.42,1.21-2.97,10.81-3.25,12.06l-.2.91-.1.92-3.23,29.01v.03s0,.03,0,.03c-.74,6.88,1.62,13.63,6.48,18.54,4.25,4.35,10.15,6.85,16.24,6.85.93,0,1.86-.06,2.79-.17l29-3.24h.05s.05-.01.05-.01c1.72-.2,12.73-3.24,13.59-3.52l12.02-12.03,93-93.05,12.01-12.02-.02-.02.03-.03,12.65-12.65,12.06-12.07h0s12.47-12.47,12.47-12.47c4.86-4.79,7.66-11.43,7.69-18.26Z"/>
    <g id="Page-1">
      <g id="_006---Draw-Blueprint" data-name="006---Draw-Blueprint">
        <path class="cls-1" d="m512,50.84c.03-6.95-2.74-13.63-7.68-18.52l-24.64-24.64C474.8,2.76,468.17,0,461.25,0h-.09c-6.88,0-13.47,2.77-18.29,7.68l-111.79,111.79H110.93V25.6C110.93,11.46,99.47,0,85.33,0h-17.07C30.58.04.04,30.58,0,68.27v377.61c2.14,37.4,33.28,66.51,70.74,66.12h415.66c14.14,0,25.6-11.46,25.6-25.6V145.07c0-14.14-11.46-25.6-25.6-25.6h0l-16.47,17.07h16.47c4.71,0,8.53,3.82,8.53,8.53v341.33c0,4.71-3.82,8.53-8.53,8.53H70.74c-28.17.47-51.77-21.21-53.67-49.32v-1.88c.03-28.26,22.93-51.17,51.2-51.2h17.07c14.14,0,25.6-11.46,25.6-25.6v-230.4h203.09l-19.38,19.38c-5.41,5.33-8.81,12.37-9.63,19.92l-3.23,29.07c-.27,2.84,0,5.69.79,8.43h-146.04c-4.71,0-8.53,3.82-8.53,8.53s3.82,8.53,8.53,8.53h25.6v230.4c0,4.71,3.82,8.53,8.53,8.53s8.53-3.82,8.53-8.53v-119.47h93.87v68.27h-59.73c-4.71,0-8.53,3.82-8.53,8.53s3.82,8.53,8.53,8.53h170.67c9.43,0,17.07-7.64,17.07-17.07v-128c0-4.71-3.82-8.53-8.53-8.53s-8.53,3.82-8.53,8.53v42.67h-204.8v-93.87h125.51c.83,0,1.66-.04,2.49-.14l29.16-3.32c7.4-.84,14.31-4.13,19.63-9.34l80.96-81.07,17.02-17.07,50.35-50.35c4.9-4.82,7.66-11.4,7.68-18.28ZM93.87,366.93c0,4.71-3.82,8.53-8.53,8.53h-17.07c-19.6,0-38.26,8.43-51.2,23.16V68.27c.03-28.26,22.93-51.17,51.2-51.2h17.07c4.71,0,8.53,3.82,8.53,8.53v341.33Zm196.26-25.6h93.87v68.27h-93.87v-68.27Zm44.32-131.25l-29.13,3.25c-1.81.25-3.62-.39-4.88-1.71-1.27-1.26-1.9-3.03-1.71-4.81l3.23-29.01c.14-.61.31-1.21.51-1.79l33.61,33.61c-.55.12-1.06.39-1.64.46Zm15.57-10.68l-37.34-37.35,93.01-93.01,37.32,37.32-93,93.05Zm105.02-105.11l-37.32-37.32,12.65-12.65,37.31,37.32-12.65,12.65Zm37.24-37.26h0l-12.53,12.54-37.31-37.31,12.54-12.54c1.64-1.68,3.89-2.64,6.24-2.65,2.39,0,4.68.97,6.36,2.68l24.68,24.63c1.72,1.69,2.68,4,2.67,6.41,0,2.35-.96,4.6-2.65,6.24Z"/>
      </g>
    </g>
  </g>
</svg>