<?xml version="1.0" encoding="UTF-8"?>
<svg id="_Слой_2" data-name="Слой 2" xmlns="http://www.w3.org/2000/svg" viewBox="0 0 524.62 432.81">
  <defs>
    <style>
      .cls-1 {
        fill: #404042;
      }

      .cls-1, .cls-2, .cls-3 {
        stroke-width: 0px;
      }

      .cls-2 {
        fill: #24a44a;
      }

      .cls-3 {
        fill: #fff;
      }
    </style>
  </defs>
  <g id="_Слой_1-2" data-name="Слой 1">
    <path class="cls-2" d="m227.76,196.58l-37.37-28.88c-10.93-11.01-20.24-22.97-27.95-35.85v6.2l-19.47,11.69c-1.42.85-2.51,2.16-3.1,3.72l-4.78,12.72-30.04.72c-3.87.09-7.01,3.18-7.16,7.05l-.6,14.95-33.95.81c-3.87.09-7.01,3.18-7.16,7.05l-.69,17.24-36.38.93c-1.27.03-2.51.39-3.59,1.05l-11.94,7.17c-2.26,1.36-3.63,3.83-3.56,6.47l.9,37.61v30.4l-.02.08s.02.07.02.11v.13c.04.24.08.48.14.72.04.7.18,1.4.42,2.07.16.3.34.59.54.86.27.53.6,1.02.99,1.46.33.29.69.55,1.07.77.38.31.78.59,1.21.82.53.19,1.08.32,1.65.38.35.11.72.2,1.08.25h.2s.04.01.04.01h.03s63.81,1.9,63.81,1.9h.08l.11.02c.09,0,.17-.05.26-.05.76-.03,1.51-.18,2.23-.45.24-.09.48-.19.71-.31.2-.1.42-.15.61-.26l168.26-100.96c-5.61-2.57-11.14-5.43-16.59-8.58Z"/>
    <path class="cls-3" d="m479.73,419.34h-128.44c-5.94-.65-10.27-5.93-9.74-11.88v-147.23c-.04-8.9,2.77-17.57,8.01-24.76l49.38-66.85c3.69-5.55,9.91-8.88,16.57-8.88s12.88,3.33,16.57,8.88l19.51,26.42c-7.34,5.65-15.55,10.07-24.31,13.09-9.89-5.1-21.93-3.26-29.85,4.56-.92.93-1.77,1.93-2.51,3.01-7.5,10.12-6.42,24.21,2.54,33.06.34.35.7.69,1.08,1,4.64,4.17,10.67,6.48,16.91,6.47,6.84,0,13.4-2.74,18.22-7.6.86-.9,1.65-1.85,2.38-2.86,13.85-4.3,26.85-10.99,38.39-19.78l7.15,9.67c5.17,7.14,7.93,15.74,7.88,24.56h0v147.23c.52,5.95-3.8,11.22-9.74,11.87Z"/>
    <g>
      <path class="cls-1" d="m424.04,385.31h-56.39c-3.72,0-6.74,3.02-6.74,6.74s3.02,6.74,6.74,6.74h56.39c3.72,0,6.74-3.02,6.74-6.74s-3.02-6.74-6.74-6.74Z"/>
      <path class="cls-1" d="m367.65,373.73h37.59c3.72,0,6.74-3.02,6.74-6.74s-3.02-6.74-6.74-6.74h-37.59c-3.72,0-6.74,3.02-6.74,6.74s3.02,6.74,6.74,6.74Z"/>
      <path class="cls-1" d="m424.04,335.19h-56.39c-3.72,0-6.74,3.02-6.74,6.74s3.02,6.74,6.74,6.74h56.39c3.72,0,6.74-3.02,6.74-6.74s-3.02-6.74-6.74-6.74Z"/>
      <path class="cls-1" d="m502.94,260.23c.05-11.7-3.64-23.12-10.53-32.58l-7.66-10.36c37.72-35.21,50.05-89.93,31.08-137.91C496.85,31.39,450.44-.1,398.84,0c-45.85-.14-88.09,24.84-110.06,65.07-32.34-3.51-64.98,3.04-93.46,18.77-21.63,12.98-33.53,30.19-33.71,48.52,0,.05-.03.1-.03.15v.26c0,.1-.02.21-.02.31,0,.09.02.18.02.27v26.2l-17.86,10.72c-1.3.78-2.3,1.98-2.84,3.41l-4.39,11.66-27.55.66c-3.55.08-6.43,2.91-6.57,6.46l-.55,13.71-31.13.74c-3.55.08-6.43,2.91-6.57,6.46l-.63,15.81-33.36.85c-1.16.03-2.3.36-3.3.96l-10.95,6.57c-2.08,1.25-3.33,3.51-3.27,5.93l.82,34.49v27.88l-.02.07s.02.06.02.1v.12c.03.22.08.44.13.66.04.65.16,1.28.38,1.89.15.27.31.54.5.79.25.48.55.93.9,1.34.31.26.63.5.98.7.35.29.72.54,1.11.75.49.17.99.29,1.51.35.32.1.66.18.99.23h.18s.04.01.04.01h.03s58.52,1.74,58.52,1.74h.08l.1.02c.09,0,.16-.05.24-.05.7-.03,1.39-.17,2.04-.41.22-.08.44-.17.65-.28.18-.09.38-.13.56-.24l155.31-93.19c7.48,1.05,15.01,1.58,22.56,1.6,16.85,0,33.61-2.51,49.71-7.48,7.4,7.45,15.72,13.93,24.77,19.26-4.37,8.1-6.67,17.15-6.68,26.36v147.23c-.55,13.4,9.82,24.72,23.22,25.35h128.44c13.39-.63,23.76-11.95,23.21-25.35v-147.23h0Zm-214.57-154.62c1.89-10.59,5.34-20.85,10.22-30.43,20.48-40.67,63.5-64.94,108.9-61.44,45.4,3.5,84.19,34.07,98.2,77.4,14.01,43.33.46,90.82-34.3,120.24h0c-12.11,10.36-26.31,17.97-41.64,22.34-7.81,2.25-15.85,3.63-23.96,4.1-2.46-3.35-2.99-7.75-1.38-11.58,54.43-3.03,96.56-48.84,95.03-103.33s-46.16-97.87-100.67-97.85c-35.43.13-68.23,18.76-86.47,49.13-6.03,10.03-10.24,21.04-12.42,32.54-.91,4.83-1.45,9.72-1.62,14.63-3.69,1.51-7.65,2.26-11.63,2.18.07-6.02.65-12.02,1.74-17.93Zm52.9-25.12h0c-4.1-2.33-8.36-4.38-12.75-6.11,19.15-26.3,51.37-39.73,83.54-34.83s58.91,27.33,69.35,58.15c10.44,30.82,2.83,64.88-19.72,88.33l-18.78-25.42c-6.32-8.89-16.51-14.22-27.41-14.34h0c-10.9.12-21.09,5.46-27.4,14.35l-30.89,41.83c-3.45-1.89-6.77-4.01-9.93-6.35,14.05-9.41,23.04-24.71,24.44-41.56v-.04s0-27.91,0-27.91v-.12c.55-17.97-10.27-34.3-30.45-45.99ZM72.17,300.97l-45.25-1.35v-14.69l45.25,1.36v14.68Zm4.96-28.02l-50.37-1.51-.58-24.33,6.07-3.64,37.9-.97c3.55-.09,6.42-2.92,6.56-6.47l.64-15.8,31.13-.74c3.55-.08,6.43-2.91,6.57-6.46l.55-13.71,25.78-.62c2.75-.07,5.18-1.79,6.15-4.37l5.16-13.72,24.21-14.53c4.57,4.45,9.68,8.31,15.2,11.49.49.29,1.03.53,1.53.81l-128.11,76.87c-3.19,1.92-4.22,6.05-2.31,9.24,1.92,3.19,6.05,4.22,9.24,2.31l136.03-81.62c3.14,1.16,6.38,2.19,9.71,3.13l-141.03,84.62Zm152.32-63.21l-143.81,86.29v-12.47l143.81-86.29v12.47h0Zm-30.6-43.8h0c-15.16-8.8-23.59-20.4-23.79-32.7v-.52c.03-13.35,9.92-26.94,27.19-37.31,24.51-13.39,52.37-19.41,80.22-17.34-2.78,6.82-4.95,13.87-6.48,21.07-2.31.76-4.53,1.74-6.64,2.95-6,3.07-9.91,9.1-10.26,15.82.33,6.28,3.99,11.9,9.59,14.75,3.03,1.73,6.34,2.93,9.78,3.53,2.87.59,5.79.89,8.72.88,7.18.09,14.25-1.73,20.5-5.27l.68-.44c5.52-2.97,9.14-8.54,9.62-14.78.09-3.99-1.36-7.86-4.06-10.81,1.6-6.87,4.04-13.51,7.27-19.77,4.59,1.67,9.04,3.72,13.29,6.12,15.61,9.04,24.02,21,23.76,34.14v.03s0,.38,0,.38c-.57,13.04-10.17,25.81-27.07,35.96-4.59,2.72-9.36,5.11-14.3,7.15-7.5,3.05-15.25,5.44-23.16,7.16-.12.02-.25.04-.37.07-34.05,7.28-70.26,3.04-94.52-11.08Zm74.65-50.01c-.09,1.12-.1,2.28-.15,3.42-.43-.4-.7-.94-.78-1.52.09-.72.42-1.39.93-1.9Zm36.17,84.75c-21.48,7.13-44.26,9.49-66.75,6.92v-14.56c5.78.61,11.58.92,17.4.93,11.93,0,23.83-1.24,35.51-3.7.15-.02.3-.05.44-.08,8.8-1.89,17.41-4.55,25.74-7.93,5.55-2.29,10.92-4.97,16.07-8.04,7.32-4.28,13.96-9.62,19.73-15.84-1.95,11.46-10.8,22.59-25.79,31.93-.22.16-.41.27-.84.54-6.81,4.02-14.01,7.31-21.51,9.82Zm14.3,8.8h0c3.86-1.67,7.63-3.57,11.33-5.63,4.33,3.56,8.96,6.76,13.83,9.54l-6.86,9.29c-6.54-3.75-12.68-8.18-18.3-13.2Zm155.75,209.87h-128.44c-5.94-.65-10.27-5.93-9.74-11.88v-147.23c-.04-8.9,2.77-17.57,8.01-24.76l49.38-66.85c3.69-5.55,9.91-8.88,16.57-8.88s12.88,3.33,16.57,8.88l19.51,26.42c-7.34,5.65-15.55,10.07-24.31,13.09-9.89-5.1-21.93-3.26-29.85,4.56-.92.93-1.77,1.93-2.51,3.01-7.5,10.12-6.42,24.21,2.54,33.06.34.35.7.69,1.08,1,4.64,4.17,10.67,6.48,16.91,6.47,6.84,0,13.4-2.74,18.22-7.6.86-.9,1.65-1.85,2.38-2.86,13.85-4.3,26.85-10.99,38.39-19.78l7.15,9.67c5.17,7.14,7.93,15.74,7.88,24.56h0v147.23c.52,5.95-3.8,11.22-9.74,11.87Z"/>
    </g>
  </g>
</svg>