<?xml version="1.0" encoding="UTF-8"?>
<svg id="_Слой_2" data-name="Слой 2" xmlns="http://www.w3.org/2000/svg" viewBox="0 0 511.98 511.71">
  <defs>
    <style>
      .cls-1 {
        fill: #404042;
      }

      .cls-1, .cls-2, .cls-3 {
        stroke-width: 0px;
      }

      .cls-2 {
        fill: #24a44a;
      }

      .cls-3 {
        fill: #fff;
      }
    </style>
  </defs>
  <g id="_Слой_1-2" data-name="Слой 1">
    <path class="cls-2" d="m280.68,204.94l-44.78-44.63c-2.83-2.83-3.8-7.11-2.46-10.87,6.81-19.04,8.18-39.56,3.97-59.34C224.9,31.39,166.96-6.19,108.25,6.31c-5.38,1.15-9.7,5.15-11.26,10.43-1.56,5.28-.1,10.98,3.8,14.87l49.8,49.62c2,2,3.1,4.67,3.1,7.5,0,2.83-1.1,5.49-3.11,7.5l-36.17,36.17c-4.14,4.13-10.89,4.13-15.02.02l-49.58-49.59c-3.89-3.89-9.59-5.34-14.87-3.78-5.27,1.56-9.27,5.89-10.41,11.27-4.2,19.81-2.8,40.35,4.06,59.4,20.3,56.42,82.71,85.82,139.15,65.54,3.72-1.3,7.91-.34,10.74,2.51l38.65,38.48c1.89,1.88,4.25,3.23,6.84,3.89,1.7.44,3.32,1.11,4.83,2,2.38,1.41,5.01,2.09,7.63,2.09,3.88,0,7.72-1.5,10.61-4.39l33.66-33.66c2.82-2.82,4.4-6.64,4.39-10.62,0-3.98-1.59-7.8-4.41-10.61Z"/>
    <path class="cls-1" d="m310.47,249.89l136.19-136.18,27.64-5.53c2.69-.54,4.96-2.34,6.09-4.84l30.17-66.37c1.48-3.23.8-7.04-1.71-9.57l-24.16-24.13c-2.52-2.51-6.33-3.19-9.57-1.71l-66.37,30.14c-2.5,1.13-4.3,3.4-4.84,6.09l-5.52,27.64-136.22,136.21-44.8-44.65c-2.29-2.26-3.08-5.64-2.01-8.68,20.64-57.68-9.39-121.18-67.07-141.82C128.91-.45,107.97-1.86,87.82,2.43c-6.03,1.29-10.87,5.79-12.6,11.71-1.81,6.04-.17,12.59,4.27,17.07l49.59,49.58c3.34,3.33,3.34,8.73.02,12.07,0,0-.01.01-.02.02l-36.18,36.18c-3.33,3.34-8.73,3.34-12.07.02,0,0-.01-.01-.02-.02l-49.54-49.55c-4.48-4.43-11.03-6.07-17.07-4.27-5.92,1.72-10.43,6.54-11.74,12.56-12.78,59.92,25.43,118.85,85.35,131.63,20.21,4.31,41.23,2.89,60.68-4.1,3-1.02,6.32-.23,8.53,2.04l28.32,28.16c-3.81,1.69-7.28,4.06-10.24,7L7.89,419.74c-9.99,10-9.99,26.2,0,36.2l48.26,48.27c10,10,26.21,10,36.2,0,0,0,0,0,0,0l167.19-167.19c2.97-2.99,5.37-6.51,7.06-10.38l172.93,172.48c8,7.98,18.85,12.46,30.15,12.47.65,0,1.3,0,1.95-.04,12.07-.58,23.33-6.21,31.05-15.5,13.76-17.59,12.09-42.72-3.88-58.33l-188.32-187.84Zm101.82-174.22c1.19-1.19,2-2.71,2.33-4.36l5.18-25.89,57.01-25.91,15.77,15.77-25.91,57.01-25.9,5.18c-1.65.33-3.16,1.14-4.35,2.33l-144.01,144.01-.07.05-.05.07-38.79,38.79-24.13-24.13,38.8-38.8.08-.05v-.07l144.04-144Zm-269.59,123.6c-48.73,17.54-102.46-7.75-120-56.49-5.91-16.41-7.12-34.15-3.5-51.21l49.58,49.59c10.01,9.98,26.21,9.98,36.22,0l36.18-36.18c10-9.99,10.01-26.2.01-36.2,0,0,0,0-.01-.01l-49.81-49.63c50.7-10.8,100.56,21.54,111.37,72.25,3.63,17.04,2.45,34.76-3.42,51.16-3.3,9.25-.97,19.58,5.97,26.52l44.8,44.65-33.66,33.66c-2.72-1.61-5.66-2.83-8.72-3.62l-38.65-38.48c-6.89-6.93-17.15-9.27-26.36-6.01h0Zm-33.89,264.37l-60.34-60.34,20.61-20.62,60.35,60.34-20.62,20.62Zm-28.53,28.5c-3.33,3.33-8.73,3.34-12.07,0,0,0,0,0,0,0l-48.25-48.27c-3.33-3.33-3.33-8.73,0-12.07l16.44-16.44,60.34,60.34-16.46,16.44Zm167.2-167.19l-105.99,106.01-60.36-60.35,106.01-106c6.75-6.44,17.38-6.44,24.13,0l36.21,36.21c6.66,6.66,6.66,17.47,0,24.13h0Zm242.07,160.2c-9.01,10.95-25.18,12.52-36.13,3.52-.63-.51-1.23-1.06-1.8-1.63l-183.3-182.8c-.79-3.02-1.99-5.92-3.58-8.61l33.68-33.68,188.34,187.84c9.79,9.36,11,24.58,2.8,35.36h0Z"/>
    <path class="cls-3" d="m413.26,75.67c1.19-1.19,2-2.71,2.33-4.36l5.18-25.89,57.01-25.91,15.77,15.77-25.91,57.01-25.9,5.18c-1.65.33-3.16,1.14-4.35,2.33l-144.01,144.01-.07.05-.05.07-38.79,38.79-24.13-24.13,38.8-38.8.08-.05v-.07l144.04-144Z"/>
    <rect class="cls-3" x="75.34" y="380.5" width="29.15" height="85.34" transform="translate(-272.89 187.52) rotate(-45)"/>
    <path class="cls-3" d="m81.25,492.14c-3.33,3.33-8.73,3.34-12.07,0,0,0,0,0,0,0l-48.25-48.27c-3.33-3.33-3.33-8.73,0-12.07l16.44-16.44,60.34,60.34-16.46,16.44Z"/>
  </g>
</svg>