<?xml version="1.0" encoding="UTF-8"?>
<svg id="_Слой_2" data-name="Слой 2" xmlns="http://www.w3.org/2000/svg" viewBox="0 0 210.94 210.94">
  <defs>
    <style>
      .cls-1 {
        fill: #67d449;
        fill-rule: evenodd;
        stroke-width: 0px;
      }
    </style>
  </defs>
  <g id="_Слой_1-2" data-name="Слой 1">
    <path id="Fill-232" class="cls-1" d="m167.55,150.75c-2.64,7.41-15.31,14.16-21.41,15.07-5.46.82-12.37,1.15-19.97-1.25-4.61-1.47-10.51-3.42-18.06-6.69-31.81-13.73-52.59-45.74-54.18-47.86s-12.94-17.18-12.94-32.78,8.19-23.28,11.1-26.45c2.9-3.17,6.34-3.97,8.45-3.97s4.22.02,6.08.11c1.95.1,4.56-.74,7.14,5.44,2.64,6.35,8.98,21.95,9.78,23.54.78,1.58,1.31,3.44.26,5.55s-1.58,3.44-3.17,5.3c-1.58,1.84-3.33,4.13-4.75,5.55-1.58,1.57-3.25,3.3-1.39,6.46s8.21,13.55,17.63,21.95c12.11,10.8,22.34,14.14,25.5,15.74,3.17,1.58,5.02,1.31,6.86-.8,1.86-2.11,7.94-9.25,10.05-12.43,2.11-3.17,4.22-2.64,7.14-1.58,2.9,1.06,18.5,8.72,21.66,10.32,3.17,1.58,5.28,2.37,6.08,3.7.78,1.33.78,7.66-1.86,15.07M105.52,0C47.34,0,.02,47.3,0,105.42c0,19.92,5.57,39.33,16.13,56.11l2.51,3.98-10.66,38.91,39.92-10.46,3.84,2.27c16.19,9.62,34.75,14.7,53.68,14.7h.05c58.13,0,105.44-47.3,105.47-105.44,0-28.18-10.94-54.66-30.86-74.59C160.16,10.99,133.68,0,105.52,0"/>
  </g>
</svg>