<?xml version="1.0" encoding="UTF-8"?>
<svg id="_Слой_2" data-name="Слой 2" xmlns="http://www.w3.org/2000/svg" viewBox="0 0 490 484">
  <defs>
    <style>
      .cls-1 {
        fill: #404042;
      }

      .cls-1, .cls-2, .cls-3 {
        stroke-width: 0px;
      }

      .cls-2 {
        fill: #24a44a;
      }

      .cls-3 {
        fill: #fff;
      }
    </style>
  </defs>
  <g id="_Слой_1-2" data-name="Слой 1">
    <path class="cls-3" d="m466,226h-.32c-3.03-88.69-60.26-166.4-144.05-195.63-1.79-11.68-11.81-20.32-23.63-20.37h-96c-11.82.05-21.84,8.69-23.63,20.37C94.58,59.6,37.35,137.31,34.32,226h-.32c-13.25,0-24,10.75-24,24v16c0,13.26,10.75,24,24,24h432c13.26,0,24-10.74,24-24v-16c0-13.25-10.74-24-24-24Z"/>
    <path class="cls-2" d="m444,444c-.03,22.08-17.92,39.97-40,40h-48c-30.98-.09-59.66-16.38-75.62-42.94-6.81-11.27-21.47-14.88-32.74-8.06-3.3,2-6.07,4.76-8.06,8.06-15.95,26.55-44.61,42.83-75.58,42.94h-48c-22.08-.03-39.97-17.92-40-40v-64c0-13.26,10.75-24,24-24h320c13.26,0,24,10.74,24,24v64Z"/>
    <g>
      <path class="cls-1" d="m456,216h-.32c-3.03-88.69-60.26-166.4-144.05-195.63-1.79-11.68-11.81-20.32-23.63-20.37h-96c-11.82.05-21.84,8.69-23.63,20.37C84.57,49.6,27.35,127.31,24.32,216h-.32c-13.26,0-24,10.74-24,24v16c0,13.26,10.74,24,24,24h432c13.26,0,24-10.74,24-24v-16c0-13.26-10.74-24-24-24ZM168,37.53v138.47c0,4.42,3.58,8,8,8s8-3.58,8-8V24c0-4.42,3.58-8,8-8h40v176c0,4.42,3.58,8,8,8s8-3.58,8-8V16h40c4.42,0,8,3.58,8,8v152c0,4.42,3.58,8,8,8s8-3.58,8-8V37.53c74.47,28.54,124.72,98.77,127.68,178.47H40.32c2.96-79.7,53.21-149.93,127.68-178.47Zm296,218.47c0,4.42-3.58,8-8,8H24c-4.42,0-8-3.58-8-8v-16c0-4.42,3.58-8,8-8h432c4.42,0,8,3.58,8,8v16Z"/>
      <path class="cls-1" d="m472,352h-32.8c-3.83-18.61-20.2-31.98-39.2-32H80c-22.08.03-39.97,17.92-40,40H8c-4.42,0-8,3.58-8,8v64c0,4.42,3.58,8,8,8h34.4c7.09,23.7,28.87,39.95,53.6,40h48c36.61-.1,70.49-19.35,89.34-50.73,2.3-3.68,7.14-4.79,10.81-2.5,1.01.63,1.87,1.49,2.5,2.5,18.85,31.38,52.74,50.62,89.34,50.73h48c27.81-.03,51.39-20.47,55.36-48h32.64c4.42,0,8-3.58,8-8v-64c0-4.42-3.58-8-8-8ZM40,424h-24v-24h24v24Zm0-40h-24v-8h24v8Zm384,40c-.03,22.08-17.92,39.97-40,40h-48c-30.98-.09-59.66-16.38-75.62-42.94-6.81-11.27-21.47-14.88-32.74-8.06-3.3,2-6.07,4.76-8.06,8.06-15.95,26.55-44.61,42.83-75.58,42.94h-48c-22.08-.03-39.97-17.92-40-40v-64c0-13.26,10.75-24,24-24h320c13.26,0,24,10.74,24,24v64Zm40-8h-24v-24h24v24Zm0-40h-24v-8h24v8Z"/>
    </g>
  </g>
</svg>