<?xml version="1.0" encoding="UTF-8"?>
<svg id="_Слой_2" data-name="Слой 2" xmlns="http://www.w3.org/2000/svg" viewBox="0 0 500 490">
  <defs>
    <style>
      .cls-1 {
        fill: #404042;
      }

      .cls-1, .cls-2, .cls-3 {
        stroke-width: 0px;
      }

      .cls-2 {
        fill: #24a44a;
      }

      .cls-3 {
        fill: #fff;
      }
    </style>
  </defs>
  <g id="_Слой_1-2" data-name="Слой 1">
    <path class="cls-3" d="m443.57,89.07c-27.51.21-50.79,20.37-54.93,47.57H100v352h345.68c29.99-.04,54.29-24.36,54.32-54.35V144.64c-.24-30.93-25.5-55.81-56.43-55.57Z"/>
    <path class="cls-2" d="m32,138C14.33,138,0,152.32,0,170v264c-.01,1.24.26,2.46.8,3.58l24,48c1.97,3.95,6.77,5.56,10.73,3.59,1.56-.78,2.82-2.04,3.59-3.59l24-48c.57-1.11.87-2.33.88-3.58V170c0-17.67-14.33-32-32-32Z"/>
    <g id="Blueprint">
      <path class="cls-1" d="m490,136c-.24-30.93-25.5-55.81-56.43-55.57-27.51.21-50.79,20.37-54.93,47.57H90v352h345.68c29.99-.04,54.29-24.36,54.32-54.35V136Zm-96,0c0-22.09,17.91-40,40-40s40,17.91,40,40v248.8c-21.59-22.09-57-22.5-79.09-.91-.31.3-.61.6-.91.91v-248.8Zm41.68,328H106V144h272v280c0,4.42,3.58,8,8,8s8-3.58,8-8c0-22.09,17.91-40,40-40s40,17.91,40,40v1.68c-.04,21.15-17.17,38.28-38.32,38.32Z"/>
      <path class="cls-1" d="m10,0v112h352V0H10Zm336,96H26V16h24v32h16V16h16v16h16v-16h16v32h16V16h16v16h16v-16h16v32h16V16h16v16h16v-16h16v32h16V16h16v16h16v-16h16v32h16V16h24v80Z"/>
      <path class="cls-1" d="m42,128c-17.67,0-32,14.33-32,32v264c-.01,1.24.26,2.46.8,3.58l24,48c1.97,3.95,6.77,5.56,10.73,3.59,1.56-.78,2.82-2.04,3.59-3.59l24-48c.57-1.11.87-2.33.88-3.58V160c0-17.67-14.33-32-32-32Zm8,275.72v-179.72h8v185.06l-8-5.34Zm8-195.72H26v-16h32v16Zm-32,16h8v179.72l-8,5.34v-185.06Zm0-64c0-8.84,7.16-16,16-16s16,7.16,16,16v16H26v-16Zm16,294.11l-13.69-27.38,13.69-9.14,13.69,9.12-13.69,27.39Z"/>
      <path class="cls-1" d="m234,192v80h-48v16h48v64h64v-16h-48v-128h80v192h-128.64c-3.57-24.53-22.83-43.79-47.36-47.36v-144.64h32v-16h-48v224h208v-224h-112Zm-80,208v-31.2c15.7,3.24,27.96,15.5,31.2,31.2h-31.2Z"/>
    </g>
  </g>
</svg>