<?xml version="1.0" encoding="UTF-8"?>
<svg id="_Слой_2" data-name="Слой 2" xmlns="http://www.w3.org/2000/svg" viewBox="0 0 468.18 315.03">
  <defs>
    <style>
      .cls-1 {
        fill: #24a44a;
      }

      .cls-1, .cls-2, .cls-3 {
        stroke-width: 0px;
      }

      .cls-2 {
        fill: #fff;
      }

      .cls-4 {
        fill: none;
        stroke: #404042;
        stroke-miterlimit: 10;
        stroke-width: 5px;
      }

      .cls-3 {
        fill: #404041;
      }
    </style>
  </defs>
  <g id="_Слой_1-2" data-name="Слой 1">
    <rect class="cls-2" x="22.5" y="22.5" width="445.68" height="292.53" rx="30.38" ry="30.38"/>
    <g>
      <path class="cls-1" d="m106.66,74.99v23.27s77.32,0,77.32,0c9.39,0,17.06-7.68,17.06-17.06v-20.88s-79.71,0-79.71,0c-8.1,0-14.67,6.57-14.67,14.67"/>
      <g>
        <path class="cls-3" d="m52.76,88.89c-.24-.24-.35-.53-.35-.87v-15.98c0-.36.12-.66.35-.88s.53-.34.87-.34h4.72c1.16,0,2.21.26,3.13.78.92.52,1.64,1.24,2.15,2.17.51.93.77,1.98.77,3.16s-.26,2.17-.77,3.07c-.51.9-1.23,1.6-2.15,2.1-.92.5-1.96.76-3.13.76h-3.49v5.17c0,.35-.11.64-.34.87-.23.24-.52.35-.88.35s-.64-.12-.87-.35Zm5.59-8.31c1.07,0,1.95-.34,2.64-1.03.69-.68,1.04-1.56,1.04-2.63s-.35-2.04-1.04-2.76c-.69-.72-1.57-1.09-2.64-1.09h-3.49v7.5h3.49Z"/>
        <path class="cls-3" d="m79.3,88.14c0,.32-.11.58-.32.79-.21.21-.5.32-.86.32-.46,0-.81-.2-1.06-.59l-4.06-6.51h-3.45v5.88c0,.35-.11.64-.34.87-.23.24-.52.35-.88.35s-.64-.12-.87-.35-.35-.53-.35-.87v-15.98c0-.36.12-.66.35-.88s.53-.34.87-.34h4.25c1.16,0,2.21.24,3.13.73.92.49,1.64,1.17,2.15,2.05.51.88.77,1.89.77,3.02s-.28,2.11-.85,2.97c-.57.87-1.34,1.52-2.31,1.96l3.61,5.81c.16.25.24.51.24.78Zm-6.73-8.26c1.07,0,1.95-.3,2.64-.91.69-.6,1.04-1.39,1.04-2.35,0-1.04-.35-1.89-1.04-2.55-.69-.66-1.57-.99-2.64-.99h-3.02v6.8h3.02Z"/>
        <path class="cls-3" d="m85.66,88.28c-1.42-.8-2.53-1.92-3.32-3.36-.79-1.44-1.18-3.07-1.18-4.9s.39-3.45,1.18-4.89c.79-1.43,1.89-2.55,3.32-3.35,1.42-.8,3.05-1.2,4.87-1.2s3.43.4,4.85,1.2,2.53,1.92,3.33,3.35c.79,1.43,1.19,3.06,1.19,4.89s-.4,3.46-1.19,4.9c-.79,1.44-1.9,2.56-3.32,3.36-1.42.8-3.04,1.2-4.86,1.2s-3.45-.4-4.87-1.2Zm8.48-1.97c1.07-.64,1.9-1.51,2.5-2.61.6-1.1.9-2.33.9-3.68s-.3-2.58-.9-3.68c-.6-1.1-1.43-1.97-2.49-2.6-1.06-.63-2.27-.94-3.62-.94s-2.56.31-3.62.94-1.89,1.49-2.49,2.6c-.6,1.1-.9,2.33-.9,3.68s.3,2.58.9,3.68c.6,1.1,1.43,1.97,2.5,2.61,1.07.64,2.27.96,3.61.96s2.54-.32,3.61-.96Z"/>
        <path class="cls-2" d="m128.39,71.14c.21.21.32.48.32.81s-.11.6-.32.81c-.21.21-.48.32-.81.32h-4.1v14.94c0,.35-.12.64-.35.87s-.53.35-.87.35-.64-.12-.87-.35-.35-.53-.35-.87v-14.94h-4.12c-.33,0-.6-.11-.81-.32-.21-.21-.32-.48-.32-.81s.11-.6.32-.81.48-.32.81-.32h10.67c.33,0,.6.11.81.32Z"/>
        <path class="cls-2" d="m131.77,88.89c-.24-.24-.35-.53-.35-.87v-15.98c0-.36.12-.66.35-.88s.53-.34.87-.34h10.67c.36,0,.65.11.87.32.22.21.33.49.33.84s-.11.6-.33.8c-.22.2-.51.31-.87.31h-9.44v5.73h6.77c.35,0,.63.11.86.32.23.21.34.48.34.81s-.11.6-.34.81c-.23.21-.52.32-.86.32h-6.77v5.9h9.44c.36,0,.65.1.87.31.22.2.33.47.33.8s-.11.62-.33.84c-.22.21-.51.32-.87.32h-10.67c-.35,0-.64-.12-.87-.35Z"/>
        <path class="cls-2" d="m148.29,88.89c-.24-.24-.35-.53-.35-.87v-15.98c0-.36.12-.66.35-.88s.53-.34.87-.34h4.72c1.16,0,2.21.26,3.13.78.92.52,1.64,1.24,2.15,2.17.51.93.77,1.98.77,3.16s-.26,2.17-.77,3.07c-.51.9-1.23,1.6-2.15,2.1-.92.5-1.96.76-3.13.76h-3.49v5.17c0,.35-.11.64-.34.87-.23.24-.52.35-.88.35s-.64-.12-.87-.35Zm5.59-8.31c1.07,0,1.95-.34,2.64-1.03.69-.68,1.04-1.56,1.04-2.63s-.35-2.04-1.04-2.76c-.69-.72-1.57-1.09-2.64-1.09h-3.49v7.5h3.49Z"/>
        <path class="cls-2" d="m162.98,88.89c-.23-.24-.34-.53-.34-.87v-15.98c0-.35.12-.64.35-.87s.52-.35.85-.35.64.12.87.35.35.53.35.87v14.75h6.59c.35,0,.64.12.87.35s.35.53.35.87-.12.64-.35.87-.53.35-.87.35h-7.81c-.35,0-.63-.12-.86-.35Z"/>
        <path class="cls-2" d="m177.82,88.28c-1.42-.8-2.53-1.92-3.32-3.36-.79-1.44-1.18-3.07-1.18-4.9s.39-3.45,1.18-4.89c.79-1.43,1.89-2.55,3.32-3.35,1.42-.8,3.05-1.2,4.87-1.2s3.43.4,4.85,1.2c1.42.8,2.53,1.92,3.33,3.35.79,1.43,1.19,3.06,1.19,4.89s-.4,3.46-1.19,4.9c-.79,1.44-1.9,2.56-3.32,3.36-1.42.8-3.04,1.2-4.86,1.2s-3.45-.4-4.87-1.2Zm8.48-1.97c1.07-.64,1.9-1.51,2.5-2.61.6-1.1.9-2.33.9-3.68s-.3-2.58-.9-3.68c-.6-1.1-1.43-1.97-2.49-2.6-1.06-.63-2.27-.94-3.62-.94s-2.56.31-3.62.94c-1.06.63-1.89,1.49-2.49,2.6-.6,1.1-.9,2.33-.9,3.68s.3,2.58.9,3.68c.6,1.1,1.43,1.97,2.5,2.61,1.07.64,2.27.96,3.61.96s2.54-.32,3.61-.96Z"/>
      </g>
    </g>
    <rect class="cls-4" x="2.5" y="2.5" width="445.68" height="292.53" rx="30.38" ry="30.38"/>
    <path class="cls-1" d="m406.74,134.77c-1.53-1.53-3.99-1.53-5.52,0l-117.08,117.08c-1.53,1.53-1.53,3.99,0,5.52.76.76,1.76,1.14,2.76,1.14s2-.38,2.76-1.14l117.08-117.08c1.53-1.53,1.53-3.99,0-5.52Z"/>
    <path class="cls-1" d="m310.31,133.67c-15.09,0-27.37,12.27-27.37,27.35s12.28,27.36,27.37,27.36,27.36-12.27,27.36-27.36-12.28-27.35-27.36-27.35Zm0,46.91c-10.78,0-19.56-8.77-19.56-19.55s8.77-19.55,19.56-19.55,19.55,8.77,19.55,19.55-8.77,19.55-19.55,19.55Z"/>
    <path class="cls-1" d="m380.48,203.84c-15.08,0-27.36,12.28-27.36,27.36s12.28,27.37,27.36,27.37,27.36-12.28,27.36-27.37-12.28-27.36-27.36-27.36Zm0,46.91c-10.78,0-19.55-8.77-19.55-19.56s8.77-19.55,19.55-19.55,19.55,8.77,19.55,19.55-8.77,19.56-19.55,19.56Z"/>
  </g>
</svg>