<?xml version="1.0" encoding="UTF-8"?>
<svg id="_Слой_2" data-name="Слой 2" xmlns="http://www.w3.org/2000/svg" viewBox="0 0 512 512">
  <defs>
    <style>
      .cls-1 {
        stroke-width: 0px;
      fill: #24a44a;
      }
    </style>
  </defs>
  <g id="Capa_1" data-name="Capa 1">
    <g>
      <path class="cls-1" d="m497,0h-30c-8.28,0-15,6.72-15,15v150c0,8.28,6.72,15,15,15h30c8.28,0,15-6.72,15-15V15c0-8.28-6.72-15-15-15Z"/>
      <path class="cls-1" d="m45,332H15c-8.28,0-15,6.72-15,15v150c0,8.28,6.72,15,15,15h30c8.28,0,15-6.72,15-15v-150c0-8.28-6.72-15-15-15Z"/>
      <path class="cls-1" d="m196,342c0,11.05-8.95,20-20,20h-86v120h86c77.32,0,140-62.68,140-140v-26h-120v26Z"/>
      <path class="cls-1" d="m196,170v153h120v-153c0-11.05,8.95-20,20-20h86V30h-86c-77.32,0-140,62.68-140,140Z"/>
    </g>
  </g>
</svg>
