<?xml version="1.0" encoding="UTF-8"?>
<svg id="_Слой_2" data-name="Слой 2" xmlns="http://www.w3.org/2000/svg" viewBox="0 0 381.33 512">
  <defs>
    <style>
      .cls-1 {
        fill: #404042;
      }

      .cls-1, .cls-2, .cls-3 {
        stroke-width: 0px;
      }

      .cls-2 {
        fill: #24a44a;
      }

      .cls-3 {
        fill: #fff;
      }
    </style>
  </defs>
  <g id="_Слой_1-2" data-name="Слой 1">
    <path class="cls-3" d="m324.27,384.79c.02,3.35-1.93,6.39-4.98,7.77-19.37,8.58-73.45,28.51-157.15,28.51s-137.78-19.93-157.14-28.5C1.94,391.19-.02,388.14,0,384.79V73.34c-.02-3.35,1.93-6.39,4.98-7.77,19.37-8.58,73.45-28.51,157.15-28.51s137.78,19.93,157.14,28.5c3.05,1.38,5.01,4.42,4.99,7.77v311.45Z"/>
    <path class="cls-2" d="m212.13,61.2c-37.67,0-68.2,30.53-68.2,68.2.04,37.65,30.55,68.16,68.2,68.2,37.67,0,68.2-30.53,68.2-68.2s-30.53-68.2-68.2-68.2Z"/>
    <g id="Page-1">
      <g id="_029---Boiler" data-name="029---Boiler">
        <path id="Shape" class="cls-1" d="m366.19,29.97C345.83,20.96,289.08,0,202.13,0S58.44,20.96,38.07,29.97c-9.22,4.11-15.15,13.27-15.14,23.37v311.47c-.02,10.1,5.92,19.26,15.15,23.37,4.52,2.01,10.94,4.61,18.99,7.42v32.54c0,11.36,7.48,21.36,18.38,24.57,13.61,3.86,27.41,7.01,41.35,9.43v24.26c0,14.14,11.46,25.6,25.6,25.6h17.07c14.14,0,25.6-11.46,25.6-25.6v-17.33c5.64.17,11.33.26,17.07.26s11.42-.08,17.07-.26v17.33c0,14.14,11.46,25.6,25.6,25.6h17.07c14.14,0,25.6-11.46,25.6-25.6v-24.26c13.94-2.42,27.74-5.57,41.34-9.44,10.91-3.2,18.39-13.21,18.39-24.58v-32.54c8.05-2.82,14.51-5.43,19-7.42,9.22-4.11,15.15-13.27,15.14-23.37V53.34c.02-10.1-5.92-19.26-15.15-23.37h0Zm-198.19,456.43c0,4.71-3.82,8.53-8.53,8.53h-17.07c-4.71,0-8.53-3.82-8.53-8.53v-21.58c11.13,1.52,22.51,2.66,34.13,3.41v18.17Zm102.4,0c0,4.71-3.82,8.53-8.53,8.53h-17.07c-4.71,0-8.53-3.82-8.53-8.53v-18.15c11.62-.75,23-1.89,34.13-3.41v21.56Zm59.73-58.27c.03,3.76-2.43,7.09-6.03,8.17-39.71,10.97-80.77,16.35-121.97,15.97-41.2.37-82.26-5-121.98-15.97-3.6-1.08-6.05-4.41-6.02-8.17v-27.06c41.65,11.7,84.74,17.44,128,17.07,43.26.38,86.35-5.37,128-17.07v27.06Zm34.13-63.33c.02,3.35-1.93,6.39-4.98,7.77-19.37,8.58-73.45,28.51-157.15,28.51s-137.78-19.93-157.14-28.5c-3.05-1.38-5.01-4.42-4.99-7.77V53.34c-.02-3.35,1.93-6.39,4.98-7.77,19.37-8.58,73.45-28.51,157.15-28.51s137.78,19.93,157.14,28.5c3.05,1.38,5.01,4.42,4.99,7.77v311.45Z"/>
        <path id="Shape-2" data-name="Shape" class="cls-1" d="m202.13,187.73c37.7,0,68.27-30.56,68.27-68.27s-30.56-68.27-68.27-68.27-68.27,30.56-68.27,68.27c.04,37.69,30.58,68.22,68.27,68.27Zm0-119.47c28.28,0,51.2,22.92,51.2,51.2s-22.92,51.2-51.2,51.2-51.2-22.92-51.2-51.2c.03-28.27,22.93-51.17,51.2-51.2Z"/>
        <path id="Shape-3" data-name="Shape" class="cls-1" d="m313.07,247.47H91.2c-9.43,0-17.07,7.64-17.07,17.07v51.2c0,9.43,7.64,17.07,17.07,17.07h221.87c9.43,0,17.07-7.64,17.07-17.07v-51.2c0-9.43-7.64-17.07-17.07-17.07Zm-221.87,68.27v-51.2h221.87v51.2H91.2Z"/>
        <path id="Shape-4" data-name="Shape" class="cls-1" d="m196.1,125.5c3.35,3.23,8.67,3.19,11.96-.1s3.34-8.61.1-11.96l-17.07-17.07c-3.35-3.23-8.67-3.19-11.96.1s-3.34,8.61-.1,11.96l17.07,17.07Z"/>
        <path id="Shape-5" data-name="Shape" class="cls-1" d="m133.87,281.6h-17.07c-4.71,0-8.53,3.82-8.53,8.53s3.82,8.53,8.53,8.53h17.07c4.71,0,8.53-3.82,8.53-8.53s-3.82-8.53-8.53-8.53Z"/>
        <path id="Shape-6" data-name="Shape" class="cls-1" d="m287.47,281.6h-119.47c-4.71,0-8.53,3.82-8.53,8.53s3.82,8.53,8.53,8.53h119.47c4.71,0,8.53-3.82,8.53-8.53s-3.82-8.53-8.53-8.53Z"/>
      </g>
    </g>
  </g>
</svg>