<?xml version="1.0" encoding="UTF-8"?>
<svg id="_Слой_2" data-name="Слой 2" xmlns="http://www.w3.org/2000/svg" viewBox="0 0 522.01 512.01">
  <defs>
    <style>
      .cls-1 {
        fill: #404042;
      }

      .cls-1, .cls-2, .cls-3 {
        stroke-width: 0px;
      }

      .cls-2 {
        fill: #24a44a;
      }

      .cls-3 {
        fill: #fff;
      }
    </style>
  </defs>
  <g id="_Слой_1-2" data-name="Слой 1">
    <path class="cls-3" d="m281.6,477.11v-51.4c37.48-5.96,66.06-37.56,68.06-75.83h51.2c-2.1,67.05-53.03,120.98-119.26,127.23Z"/>
    <path class="cls-3" d="m119.47,162.14h-17.07v-51.2h42.67c23.53,0,42.67,19.14,42.67,42.67v145.07h-51.2v-119.47c0-9.41-7.65-17.07-17.07-17.07Z"/>
    <path class="cls-2" d="m513.48,86.82h-17.07c-9.35,0-17.07-7.6-17.07-17.07s7.65-17.07,17.07-17.07h17.07c3.09,0,5.94-1.67,7.45-4.37,1.51-2.7,1.44-6-.18-8.64-11.24-18.3-32.24-29.67-54.81-29.67-20.8,0-40.17,9.78-51.82,25.6h-108.49c-11.72-15.85-31.06-25.6-51.81-25.6-22.57,0-43.56,11.37-54.81,29.67-1.61,2.64-1.68,5.93-.18,8.64,1.51,2.7,4.36,4.37,7.45,4.37h17.07c9.41,0,17.07,7.65,17.07,17.07s-7.71,17.07-17.07,17.07h-17.07c-3.09,0-5.94,1.67-7.45,4.37-1.51,2.7-1.44,6,.18,8.64,11.24,18.3,32.24,29.67,54.81,29.67,20.8,0,40.17-9.78,51.82-25.6h108.49c11.72,15.85,31.06,25.6,51.81,25.6,22.57,0,43.56-11.37,54.81-29.67,1.61-2.64,1.68-5.93.18-8.64-1.51-2.7-4.36-4.37-7.45-4.37Z"/>
    <path class="cls-1" d="m486.4,145.08h-17.07c-14.11,0-25.6,11.49-25.6,25.6v8.53h-51.2c-32.93,0-59.73,26.79-59.73,59.73v59.73c-9.41,0-17.07,7.65-17.07,17.07v17.07c0,9.34,7.55,16.93,16.86,17.05-1.91,28.95-23.09,52.81-51.12,58.46-.67-8.8-7.97-15.78-16.94-15.78h-17.07c-5.39,0-10.15,2.56-13.28,6.48-16.29-10.91-26.91-29.06-28.91-49.19,9.18-.26,16.59-7.77,16.59-17.02v-17.07c0-9.41-7.65-17.07-17.07-17.07v-145.07c0-32.94-26.8-59.73-59.73-59.73h-42.67c0-9.41-7.65-17.07-17.07-17.07h-17.07c-.52,0-1.02.11-1.53.15-3.49-9.99-12.91-17.22-24.07-17.22h-17.07c-14.11,0-25.6,11.49-25.6,25.6v102.4c0,14.11,11.49,25.6,25.6,25.6h17.07c11.17,0,20.58-7.23,24.07-17.22.51.04,1,.15,1.53.15h17.07c9.41,0,17.07-7.65,17.07-17.07h17.07v119.47c-9.41,0-17.07,7.65-17.07,17.07v17.07c0,9.41,7.65,17.07,17.07,17.07h.35c3.44,65.41,48.48,122.33,110.58,139.61v5.45c0,9.41,7.65,17.07,17.07,17.07h17.07c9.41,0,17.07-7.65,17.07-17.07v-.73c75.77-6.33,134.2-67.81,136.33-144.33h.2c9.41,0,17.07-7.65,17.07-17.07v-17.07c0-9.41-7.65-17.07-17.07-17.07v-34.13h25.6v8.53c0,14.11,11.49,25.6,25.6,25.6h17.07c14.11,0,25.6-11.49,25.6-25.6v-102.4c0-14.11-11.49-25.6-25.6-25.6h0ZM51.2,187.74c0,4.7-3.82,8.53-8.53,8.53h-17.07c-4.71,0-8.53-3.83-8.53-8.53v-102.4c0-4.7,3.82-8.53,8.53-8.53h17.07c4.71,0,8.53,3.83,8.53,8.53v102.4Zm34.13-8.53h-17.07v-85.33h17.07v85.33Zm34.13-17.07h-17.07v-51.2h42.67c23.53,0,42.67,19.14,42.67,42.67v145.07h-51.2v-119.47c0-9.41-7.65-17.07-17.07-17.07Zm0,153.6h85.33v17.07h-85.33v-17.07Zm17.42,34.13h51.34c2.25,28.07,18.11,53.15,42.18,66.58v55.36c-52.49-16.69-90.21-65.74-93.52-121.93Zm127.65,145.07h-17.07v-85.33h17.07v85.33Zm17.07-17.83v-51.4c37.48-5.96,66.06-37.56,68.06-75.83h51.2c-2.1,67.05-53.03,120.98-119.26,127.23Zm136.53-144.3h-85.33v-17.07h85.33v17.07Zm0-85.33c-9.41,0-17.07,7.65-17.07,17.07v34.13h-51.2v-59.73c0-23.53,19.14-42.67,42.67-42.67h51.2v51.2h-25.6Zm76.8,25.6c0,4.7-3.82,8.53-8.53,8.53h-17.07c-4.71,0-8.53-3.83-8.53-8.53v-102.4c0-4.7,3.82-8.53,8.53-8.53h17.07c4.71,0,8.53,3.83,8.53,8.53v102.4Z"/>
    <path class="cls-1" d="m486.4,42.68h17.07c3.09,0,5.94-1.67,7.45-4.37s1.44-6-.18-8.64c-11.24-18.3-32.24-29.67-54.81-29.67-20.8,0-40.17,9.78-51.82,25.6h-108.49c-11.72-15.85-31.06-25.6-51.81-25.6-22.57,0-43.56,11.37-54.81,29.67-1.61,2.64-1.68,5.93-.18,8.64,1.51,2.7,4.36,4.37,7.45,4.37h17.07c9.41,0,17.07,7.65,17.07,17.07s-7.71,17.07-17.07,17.07h-17.07c-3.09,0-5.94,1.67-7.45,4.37s-1.44,6,.18,8.64c11.24,18.3,32.24,29.67,54.81,29.67,20.8,0,40.17-9.78,51.82-25.6h108.49c11.72,15.85,31.06,25.6,51.81,25.6,22.57,0,43.56-11.37,54.81-29.67,1.61-2.64,1.68-5.93.18-8.64-1.51-2.7-4.36-4.37-7.45-4.37h-17.07c-9.35,0-17.07-7.6-17.07-17.07s7.65-17.07,17.07-17.07Zm-91.14,0c-1.74,5.49-2.72,11.21-2.72,17.07s.98,11.6,2.71,17.07h-90.76c1.74-5.49,2.72-11.21,2.72-17.07s-.98-11.6-2.71-17.07h90.76Zm-111.28,38.2c-8.16,13.29-23.55,21.53-40.17,21.53-10.26,0-20.05-3.12-27.96-8.63,17.59-1.26,31.63-15.97,31.63-34.04s-13.98-32.76-31.63-34.04c7.92-5.5,17.71-8.63,27.96-8.63,16.61,0,32.01,8.25,40.24,21.65,4.04,6.34,6.09,13.41,6.09,21.02s-2.05,14.68-6.17,21.14Zm199.94,12.91c-7.92,5.5-17.71,8.63-27.96,8.63-16.61,0-32.01-8.25-40.24-21.65-4.04-6.34-6.09-13.41-6.09-21.02s2.05-14.68,6.17-21.14c8.16-13.29,23.55-21.53,40.17-21.53,10.26,0,20.05,3.12,27.96,8.63-17.66,1.28-31.63,16.06-31.63,34.04s14.04,32.78,31.63,34.04Z"/>
  </g>
</svg>