<?xml version="1.0" encoding="UTF-8"?>
<svg id="_Слой_2" data-name="Слой 2" xmlns="http://www.w3.org/2000/svg" viewBox="0 0 280.18 505.78">
  <defs>
    <style>
      .cls-1 {
        fill: #24a44a;
      }

      .cls-1, .cls-2, .cls-3 {
        stroke-width: 0px;
      }

      .cls-2 {
        fill: #fff;
      }

      .cls-4 {
        fill: none;
        stroke: #404042;
        stroke-miterlimit: 10;
        stroke-width: 5px;
      }

      .cls-3 {
        fill: #404041;
      }
    </style>
  </defs>
  <g id="_Слой_1-2" data-name="Слой 1">
    <path class="cls-2" d="m151.34,23.48h0c-71.15,0-128.84,57.68-128.84,128.84v315.6c0,14.93,7.74,27.65,21.01,33.73,4.98,2.76,10.51,3.87,16.04,3.87h0c8.29,0,16.59-2.76,23.22-8.29l59.17-48.11c5.53-4.42,13.27-4.42,18.8,0l59.17,48.11c11.06,9.4,25.99,11.06,39.26,4.98,12.72-6.64,21.01-19.35,21.01-33.73V152.31c0-71.15-57.68-128.84-128.84-128.84Z"/>
    <g>
      <path class="cls-1" d="m105.13,145.33v30.4s101,0,101,0c12.26,0,22.29-10.03,22.29-22.29v-27.27s-104.12,0-104.12,0c-10.59,0-19.17,8.58-19.17,19.17"/>
      <g>
        <path class="cls-3" d="m34.72,163.49c-.31-.31-.46-.69-.46-1.14v-20.87c0-.47.15-.86.46-1.16s.69-.45,1.14-.45h6.16c1.52,0,2.88.34,4.08,1.02,1.2.68,2.14,1.62,2.81,2.84.67,1.21,1,2.59,1,4.13s-.33,2.84-1,4.01c-.67,1.17-1.6,2.09-2.81,2.74-1.2.66-2.56.99-4.08.99h-4.56v6.75c0,.45-.15.83-.45,1.14-.3.31-.68.46-1.16.46s-.83-.15-1.14-.46Zm7.31-10.85c1.4,0,2.55-.45,3.45-1.34.9-.89,1.36-2.04,1.36-3.44s-.45-2.66-1.36-3.61c-.9-.94-2.06-1.42-3.45-1.42h-4.56v9.8h4.56Z"/>
        <path class="cls-3" d="m69.39,162.51c0,.41-.14.75-.42,1.03-.28.28-.65.42-1.12.42-.6,0-1.06-.26-1.39-.77l-5.3-8.51h-4.5v7.68c0,.45-.15.83-.45,1.14-.3.31-.68.46-1.16.46s-.83-.15-1.14-.46-.46-.69-.46-1.14v-20.87c0-.47.15-.86.46-1.16s.69-.45,1.14-.45h5.55c1.52,0,2.88.32,4.08.95,1.2.64,2.14,1.53,2.81,2.68.67,1.15,1,2.47,1,3.95s-.37,2.75-1.11,3.88c-.74,1.13-1.75,1.98-3.02,2.56l4.72,7.58c.21.33.31.67.31,1.02Zm-8.79-10.79c1.4,0,2.55-.4,3.45-1.19.9-.79,1.36-1.81,1.36-3.07,0-1.36-.45-2.47-1.36-3.33-.9-.86-2.06-1.3-3.45-1.3h-3.94v8.88h3.94Z"/>
        <path class="cls-3" d="m77.7,162.69c-1.86-1.05-3.3-2.51-4.33-4.39-1.03-1.88-1.54-4.01-1.54-6.39s.51-4.51,1.54-6.38c1.03-1.87,2.47-3.33,4.33-4.38,1.86-1.05,3.98-1.57,6.37-1.57s4.47.52,6.33,1.57,3.31,2.51,4.35,4.38c1.04,1.87,1.56,4,1.56,6.38s-.52,4.51-1.56,6.39c-1.04,1.88-2.48,3.35-4.33,4.39-1.85,1.05-3.97,1.57-6.35,1.57s-4.51-.52-6.37-1.57Zm11.08-2.57c1.4-.83,2.49-1.97,3.27-3.41.78-1.44,1.17-3.04,1.17-4.81s-.39-3.37-1.17-4.81c-.78-1.44-1.86-2.57-3.25-3.39-1.39-.82-2.96-1.23-4.73-1.23s-3.34.41-4.73,1.23-2.47,1.95-3.25,3.39c-.78,1.44-1.17,3.04-1.17,4.81s.39,3.37,1.17,4.81c.78,1.44,1.87,2.57,3.27,3.41,1.4.83,2.97,1.25,4.72,1.25s3.32-.42,4.72-1.25Z"/>
        <path class="cls-2" d="m133.51,140.3c.28.28.42.63.42,1.06s-.14.79-.42,1.06c-.28.28-.63.42-1.06.42h-5.35v19.51c0,.45-.15.83-.46,1.14s-.69.46-1.14.46-.83-.15-1.14-.46-.46-.69-.46-1.14v-19.51h-5.38c-.43,0-.79-.14-1.06-.42-.28-.28-.42-.63-.42-1.06s.14-.79.42-1.06.63-.42,1.06-.42h13.93c.43,0,.79.14,1.06.42Z"/>
        <path class="cls-2" d="m137.93,163.49c-.31-.31-.46-.69-.46-1.14v-20.87c0-.47.15-.86.46-1.16s.69-.45,1.14-.45h13.93c.47,0,.85.14,1.14.42.29.28.43.64.43,1.09s-.14.78-.43,1.05c-.29.27-.67.4-1.14.4h-12.33v7.49h8.85c.45,0,.83.14,1.12.42.3.28.45.63.45,1.06s-.15.79-.45,1.06c-.3.28-.67.42-1.12.42h-8.85v7.71h12.33c.47,0,.85.13,1.14.4.29.27.43.62.43,1.05s-.14.82-.43,1.09c-.29.28-.67.42-1.14.42h-13.93c-.45,0-.83-.15-1.14-.46Z"/>
        <path class="cls-2" d="m159.51,163.49c-.31-.31-.46-.69-.46-1.14v-20.87c0-.47.15-.86.46-1.16s.69-.45,1.14-.45h6.16c1.52,0,2.88.34,4.08,1.02,1.2.68,2.14,1.62,2.81,2.84.67,1.21,1,2.59,1,4.13s-.33,2.84-1,4.01c-.67,1.17-1.6,2.09-2.81,2.74-1.2.66-2.56.99-4.08.99h-4.56v6.75c0,.45-.15.83-.45,1.14-.3.31-.68.46-1.16.46s-.83-.15-1.14-.46Zm7.31-10.85c1.4,0,2.55-.45,3.45-1.34.9-.89,1.36-2.04,1.36-3.44s-.45-2.66-1.36-3.61c-.9-.94-2.06-1.42-3.45-1.42h-4.56v9.8h4.56Z"/>
        <path class="cls-2" d="m178.69,163.49c-.3-.31-.45-.69-.45-1.14v-20.87c0-.45.15-.83.46-1.14s.68-.46,1.11-.46.83.15,1.14.46.46.69.46,1.14v19.26h8.6c.45,0,.83.15,1.14.46s.46.69.46,1.14-.15.83-.46,1.14-.69.46-1.14.46h-10.21c-.45,0-.83-.15-1.12-.46Z"/>
        <path class="cls-2" d="m198.08,162.69c-1.86-1.05-3.3-2.51-4.33-4.39s-1.54-4.01-1.54-6.39.51-4.51,1.54-6.38c1.03-1.87,2.47-3.33,4.33-4.38,1.86-1.05,3.98-1.57,6.37-1.57s4.47.52,6.33,1.57c1.86,1.05,3.31,2.51,4.35,4.38,1.04,1.87,1.56,4,1.56,6.38s-.52,4.51-1.56,6.39c-1.04,1.88-2.48,3.35-4.33,4.39-1.85,1.05-3.97,1.57-6.35,1.57s-4.51-.52-6.37-1.57Zm11.08-2.57c1.4-.83,2.49-1.97,3.27-3.41.78-1.44,1.17-3.04,1.17-4.81s-.39-3.37-1.17-4.81c-.78-1.44-1.86-2.57-3.25-3.39-1.39-.82-2.96-1.23-4.73-1.23s-3.34.41-4.73,1.23-2.47,1.95-3.25,3.39c-.78,1.44-1.17,3.04-1.17,4.81s.39,3.37,1.17,4.81c.78,1.44,1.87,2.57,3.27,3.41,1.4.83,2.97,1.25,4.72,1.25s3.32-.42,4.72-1.25Z"/>
      </g>
    </g>
    <path class="cls-4" d="m131.34,2.5h0C60.18,2.5,2.5,60.18,2.5,131.34v315.6c0,14.93,7.74,27.65,21.01,33.73,4.98,2.76,10.51,3.87,16.04,3.87h0c8.29,0,16.59-2.76,23.22-8.29l59.17-48.11c5.53-4.42,13.27-4.42,18.8,0l59.17,48.11c11.06,9.4,25.99,11.06,39.26,4.98,12.72-6.64,21.01-19.35,21.01-33.73V131.34C260.18,60.18,202.49,2.5,131.34,2.5Z"/>
    <g>
      <path class="cls-1" d="m79.88,285.9c-.17-.54-.7-.91-1.43-1.01l-5.83-.85-2.61-5.28c-.33-.67-.84-1.05-1.41-1.05s-1.08.38-1.41,1.05l-2.6,5.28-5.83.85c-.73.11-1.26.48-1.43,1.01-.17.54.03,1.14.56,1.66l4.22,4.11-1,5.8c-.13.76.09,1.22.3,1.47.25.29.6.45,1.01.45.31,0,.63-.09.97-.27l5.21-2.74,5.21,2.74c.34.18.66.27.97.27h0c.4,0,.76-.16,1.01-.45.21-.25.43-.7.3-1.47l-1-5.8,4.22-4.11c.53-.52.74-1.12.56-1.66h0Z"/>
      <path class="cls-1" d="m112.53,285.9c-.17-.54-.7-.91-1.43-1.01l-5.83-.85-2.61-5.28c-.33-.67-.84-1.05-1.41-1.05s-1.08.38-1.41,1.05l-2.6,5.28-5.83.85c-.73.11-1.26.48-1.43,1.01-.17.54.03,1.14.56,1.66l4.22,4.11-1,5.8c-.13.76.09,1.22.3,1.47.25.29.6.45,1.01.45.31,0,.63-.09.97-.27l5.21-2.74,5.21,2.74c.34.18.66.27.97.27h0c.4,0,.76-.16,1.01-.45.21-.25.43-.7.3-1.47l-1-5.8,4.22-4.11c.53-.52.74-1.12.56-1.66h0Z"/>
      <path class="cls-1" d="m145.19,285.9c-.17-.54-.7-.91-1.43-1.01l-5.83-.85-2.61-5.28c-.33-.67-.84-1.05-1.41-1.05s-1.08.38-1.41,1.05l-2.6,5.28-5.83.85c-.73.11-1.26.48-1.43,1.01-.17.54.03,1.14.56,1.66l4.22,4.11-1,5.8c-.13.76.09,1.22.3,1.47.25.29.6.45,1.01.45.31,0,.63-.09.97-.27l5.21-2.74,5.21,2.74c.34.18.66.27.97.27h0c.4,0,.76-.16,1.01-.45.21-.25.43-.7.3-1.47l-1-5.8,4.22-4.11c.53-.52.74-1.12.56-1.66h0Z"/>
      <path class="cls-1" d="m177.84,285.9c-.17-.54-.7-.91-1.43-1.01l-5.83-.85-2.61-5.28c-.33-.67-.84-1.05-1.41-1.05s-1.08.38-1.41,1.05l-2.6,5.28-5.83.85c-.73.11-1.26.48-1.43,1.01-.17.54.03,1.14.56,1.66l4.22,4.11-1,5.8c-.13.76.09,1.22.3,1.47.25.29.6.45,1.01.45.31,0,.63-.09.97-.27l5.21-2.74,5.21,2.74c.34.18.66.27.97.27h0c.4,0,.76-.16,1.01-.45.21-.25.43-.7.3-1.47l-1-5.8,4.22-4.11c.53-.52.74-1.12.56-1.66h0Z"/>
      <path class="cls-1" d="m210.5,285.9c-.17-.54-.7-.91-1.43-1.01l-5.83-.85-2.61-5.28c-.33-.67-.84-1.05-1.41-1.05s-1.08.38-1.41,1.05l-2.6,5.28-5.83.85c-.73.11-1.26.48-1.43,1.01-.17.54.03,1.14.56,1.66l4.22,4.11-1,5.8c-.13.76.09,1.22.3,1.47.25.29.6.45,1.01.45.31,0,.63-.09.97-.27l5.21-2.74,5.21,2.74c.34.18.66.27.97.27h0c.4,0,.76-.16,1.01-.45.21-.25.43-.7.3-1.47l-1-5.8,4.22-4.11c.53-.52.74-1.12.56-1.66h0Z"/>
    </g>
  </g>
</svg>