<?xml version="1.0" encoding="UTF-8"?>
<svg id="_Слой_2" data-name="Слой 2" xmlns="http://www.w3.org/2000/svg" xmlns:xlink="http://www.w3.org/1999/xlink" viewBox="0 0 512 512">
  <defs>
    <style>
      .cls-1 {
        fill: url(#_Безымянный_градиент);
        fill-rule: evenodd;
      }

      .cls-1, .cls-2 {
        stroke-width: 0px;
      }

      .cls-2 {
        fill: #fff;
      }
    </style>
    <linearGradient id="_Безымянный_градиент" data-name="Безымянный градиент" x1="256" y1="0" x2="256" y2="508.3" gradientUnits="userSpaceOnUse">
      <stop offset="0" stop-color="#2aabee"/>
      <stop offset="1" stop-color="#229ed9"/>
    </linearGradient>
  </defs>
  <g id="Capa_1" data-name="Capa 1">
    <circle class="cls-2" cx="256" cy="256" r="185.51"/>
    <path class="cls-1" d="m256,0C114.62,0,0,114.62,0,256s114.62,256,256,256,256-114.62,256-256S397.38,0,256,0Zm118.66,174.1c-3.85,40.48-20.52,138.71-29,184.05-3.59,19.18-10.65,25.62-17.49,26.25-14.87,1.37-26.15-9.83-40.55-19.26-22.53-14.77-35.26-23.96-57.13-38.38-25.28-16.66-8.89-25.81,5.51-40.77,3.77-3.92,69.27-63.49,70.54-68.9.16-.68.31-3.2-1.19-4.53-1.5-1.33-3.71-.88-5.3-.51-2.26.51-38.25,24.3-107.98,71.37-10.22,7.02-19.47,10.43-27.76,10.26-9.14-.2-26.72-5.17-39.79-9.42-16.03-5.21-28.77-7.97-27.66-16.82.58-4.61,6.93-9.33,19.04-14.14,74.63-32.51,124.39-53.95,149.29-64.31,71.09-29.57,85.87-34.71,95.49-34.88,2.12-.04,6.85.49,9.92,2.98,4.55,3.69,4.58,11.71,4.07,17.01Z"/>
  </g>
</svg>